<?xml version="1.0" encoding="utf-8"?>
<svg version="1.1" xmlns:xlink="http://www.w3.org/1999/xlink" width="13px" height="13px" xmlns="http://www.w3.org/2000/svg">
  <g transform="matrix(1 0 0 1 -797 -231 )">
    <path d="M 803.5 231  C 807.14 231  810 233.86  810 237.5  C 810 241.14  807.14 244  803.5 244  C 799.86 244  797 241.14  797 237.5  C 797 233.86  799.86 231  803.5 231  Z " fill-rule="nonzero" fill="#d7d7d7" stroke="none" />
    <path d="M 803.5 231.5  C 806.86 231.5  809.5 234.14  809.5 237.5  C 809.5 240.86  806.86 243.5  803.5 243.5  C 800.14 243.5  797.5 240.86  797.5 237.5  C 797.5 234.14  800.14 231.5  803.5 231.5  Z " stroke-width="1" stroke="#797979" fill="none" />
  </g>
</svg>