<?xml version="1.0" encoding="utf-8"?>
<svg version="1.1" xmlns:xlink="http://www.w3.org/1999/xlink" width="12px" height="12px" viewBox="887 231.5  12 12" xmlns="http://www.w3.org/2000/svg">
  <path d="M 893 231.5  C 896.36 231.5  899 234.14  899 237.5  C 899 240.86  896.36 243.5  893 243.5  C 889.64 243.5  887 240.86  887 237.5  C 887 234.14  889.64 231.5  893 231.5  Z " fill-rule="nonzero" fill="#f0f0f0" stroke="none" />
  <path d="M 893 232  C 896.08 232  898.5 234.42  898.5 237.5  C 898.5 240.58  896.08 243  893 243  C 889.92 243  887.5 240.58  887.5 237.5  C 887.5 234.42  889.92 232  893 232  Z " stroke-width="1" stroke="#797979" fill="none" />
  <path d="M 893 240.5  C 891.32 240.5  890 239.18  890 237.5  C 890 235.82  891.32 234.5  893 234.5  C 894.68 234.5  896 235.82  896 237.5  C 896 239.18  894.68 240.5  893 240.5  " fill-rule="nonzero" fill="#797979" stroke="none" />
</svg>