<?xml version="1.0" encoding="utf-8"?>
<svg version="1.1" xmlns:xlink="http://www.w3.org/1999/xlink" width="18px" height="16px" xmlns="http://www.w3.org/2000/svg">
  <g transform="matrix(1 0 0 1 -190 -137 )">
    <path d="M 10.1876391982183 13.4471153846154  C 10.2511135857461 13.3862179487179  10.28285077951 13.3108974358974  10.28285077951 13.2211538461538  L 10.28285077951 11.3942307692308  C 10.28285077951 11.3044871794872  10.2511135857461 11.2291666666667  10.1876391982183 11.1682692307692  C 10.1241648106904 11.1073717948718  10.0489977728285 11.0769230769231  9.96213808463252 11.0769230769231  L 8.03786191536748 11.0769230769231  C 7.95100222717149 11.0769230769231  7.87583518930958 11.1073717948718  7.81236080178174 11.1682692307692  C 7.7488864142539 11.2291666666667  7.71714922048998 11.3044871794872  7.71714922048998 11.3942307692308  L 7.71714922048998 13.2211538461538  C 7.71714922048998 13.3108974358974  7.7488864142539 13.3862179487179  7.81236080178174 13.4471153846154  C 7.87583518930958 13.5080128205128  7.95100222717149 13.5384615384615  8.03786191536748 13.5384615384615  L 9.96213808463252 13.5384615384615  C 10.0489977728285 13.5384615384615  10.1241648106904 13.5080128205128  10.1876391982183 13.4471153846154  Z M 10.1575723830735 9.78365384615385  C 10.2210467706013 9.74198717948718  10.2561247216036 9.68910256410256  10.2628062360802 9.625  L 10.4432071269488 5.21153846153846  C 10.4432071269488 5.13461538461539  10.4097995545657 5.07371794871795  10.3429844097996 5.02884615384615  C 10.2561247216036 4.95833333333333  10.1759465478842 4.92307692307692  10.1024498886414 4.92307692307692  L 7.89755011135857 4.92307692307692  C 7.82405345211581 4.92307692307692  7.74387527839644 4.95833333333333  7.65701559020045 5.02884615384615  C 7.5902004454343 5.07371794871795  7.55679287305122 5.14102564102564  7.55679287305122 5.23076923076923  L 7.7271714922049 9.625  C 7.7271714922049 9.68910256410256  7.76057906458797 9.74198717948718  7.82739420935412 9.78365384615385  C 7.89420935412027 9.82532051282051  7.97438752783964 9.84615384615385  8.06792873051225 9.84615384615385  L 9.92204899777283 9.84615384615385  C 10.0155902004454 9.84615384615385  10.0940979955457 9.82532051282051  10.1575723830735 9.78365384615385  Z M 9.65144766146993 0.173076923076923  C 9.85189309576838 0.288461538461538  10.0089086859688 0.445512820512819  10.1224944320713 0.64423076923077  L 17.8195991091314 14.1826923076923  C 18.0534521158129 14.5865384615385  18.0467706013363 14.9903846153846  17.7995545657016 15.3942307692308  C 17.6859688195991 15.5801282051282  17.5306236080178 15.7275641025641  17.3335189309577 15.8365384615385  C 17.1364142538976 15.9455128205128  16.924276169265 16  16.6971046770601 16  L 1.30289532293987 16  C 1.07572383073497 16  0.86358574610245 15.9455128205128  0.666481069042316 15.8365384615385  C 0.469376391982183 15.7275641025641  0.314031180400891 15.5801282051282  0.200445434298441 15.3942307692308  C -0.0467706013363029 14.9903846153846  -0.0534521158129176 14.5865384615385  0.180400890868597 14.1826923076923  L 7.87750556792873 0.64423076923077  C 7.99109131403118 0.445512820512819  8.14810690423163 0.288461538461538  8.34855233853007 0.173076923076923  C 8.54899777282851 0.0576923076923084  8.76614699331849 0  9 0  C 9.23385300668152 0  9.45100222717149 0.0576923076923084  9.65144766146993 0.173076923076923  Z " fill-rule="nonzero" fill="#cf0037" stroke="none" transform="matrix(1 0 0 1 190 137 )" />
  </g>
</svg>