<?xml version="1.0" encoding="utf-8"?>
<svg version="1.1" xmlns:xlink="http://www.w3.org/1999/xlink" width="12px" height="12px" viewBox="530 682.5  12 12" xmlns="http://www.w3.org/2000/svg">
  <path d="M 536 682.5  C 539.36 682.5  542 685.14  542 688.5  C 542 691.86  539.36 694.5  536 694.5  C 532.64 694.5  530 691.86  530 688.5  C 530 685.14  532.64 682.5  536 682.5  Z " fill-rule="nonzero" fill="#ffffff" stroke="none" />
  <path d="M 536 683  C 539.08 683  541.5 685.42  541.5 688.5  C 541.5 691.58  539.08 694  536 694  C 532.92 694  530.5 691.58  530.5 688.5  C 530.5 685.42  532.92 683  536 683  Z " stroke-width="1" stroke="#797979" fill="none" />
  <path d="M 536 691.5  C 534.32 691.5  533 690.18  533 688.5  C 533 686.82  534.32 685.5  536 685.5  C 537.68 685.5  539 686.82  539 688.5  C 539 690.18  537.68 691.5  536 691.5  " fill-rule="nonzero" fill="#797979" stroke="none" />
</svg>