<?xml version="1.0" encoding="utf-8"?>
<svg version="1.1" xmlns:xlink="http://www.w3.org/1999/xlink" width="12px" height="12px" viewBox="352 682.5  12 12" xmlns="http://www.w3.org/2000/svg">
  <path d="M 358 682.5  C 361.36 682.5  364 685.14  364 688.5  C 364 691.86  361.36 694.5  358 694.5  C 354.64 694.5  352 691.86  352 688.5  C 352 685.14  354.64 682.5  358 682.5  Z " fill-rule="nonzero" fill="#ffffff" stroke="none" />
  <path d="M 358 683  C 361.08 683  363.5 685.42  363.5 688.5  C 363.5 691.58  361.08 694  358 694  C 354.92 694  352.5 691.58  352.5 688.5  C 352.5 685.42  354.92 683  358 683  Z " stroke-width="1" stroke="#797979" fill="none" />
  <path d="M 358 691.5  C 356.32 691.5  355 690.18  355 688.5  C 355 686.82  356.32 685.5  358 685.5  C 359.68 685.5  361 686.82  361 688.5  C 361 690.18  359.68 691.5  358 691.5  " fill-rule="nonzero" fill="#797979" stroke="none" />
</svg>