<?xml version="1.0" encoding="utf-8"?>
<svg version="1.1" xmlns:xlink="http://www.w3.org/1999/xlink" width="12px" height="12px" viewBox="441 720.5  12 12" xmlns="http://www.w3.org/2000/svg">
  <path d="M 447 720.5  C 450.36 720.5  453 723.14  453 726.5  C 453 729.86  450.36 732.5  447 732.5  C 443.64 732.5  441 729.86  441 726.5  C 441 723.14  443.64 720.5  447 720.5  Z " fill-rule="nonzero" fill="#f0f0f0" stroke="none" />
  <path d="M 447 721  C 450.08 721  452.5 723.42  452.5 726.5  C 452.5 729.58  450.08 732  447 732  C 443.92 732  441.5 729.58  441.5 726.5  C 441.5 723.42  443.92 721  447 721  Z " stroke-width="1" stroke="#797979" fill="none" />
  <path d="M 447 729.5  C 445.32 729.5  444 728.18  444 726.5  C 444 724.82  445.32 723.5  447 723.5  C 448.68 723.5  450 724.82  450 726.5  C 450 728.18  448.68 729.5  447 729.5  " fill-rule="nonzero" fill="#797979" stroke="none" />
</svg>