<?xml version="1.0" encoding="utf-8"?>
<svg version="1.1" xmlns:xlink="http://www.w3.org/1999/xlink" width="12px" height="12px" viewBox="530 720.5  12 12" xmlns="http://www.w3.org/2000/svg">
  <path d="M 536 720.5  C 539.36 720.5  542 723.14  542 726.5  C 542 729.86  539.36 732.5  536 732.5  C 532.64 732.5  530 729.86  530 726.5  C 530 723.14  532.64 720.5  536 720.5  Z " fill-rule="nonzero" fill="#ffffff" stroke="none" />
  <path d="M 536 721  C 539.08 721  541.5 723.42  541.5 726.5  C 541.5 729.58  539.08 732  536 732  C 532.92 732  530.5 729.58  530.5 726.5  C 530.5 723.42  532.92 721  536 721  Z " stroke-width="1" stroke="#797979" fill="none" />
  <path d="M 536 729.5  C 534.32 729.5  533 728.18  533 726.5  C 533 724.82  534.32 723.5  536 723.5  C 537.68 723.5  539 724.82  539 726.5  C 539 728.18  537.68 729.5  536 729.5  " fill-rule="nonzero" fill="#797979" stroke="none" />
</svg>