<?xml version="1.0" encoding="utf-8"?>
<svg version="1.1" xmlns:xlink="http://www.w3.org/1999/xlink" width="12px" height="11px" xmlns="http://www.w3.org/2000/svg">
  <g transform="matrix(1 0 0 1 -853 -140 )">
    <path d="M 2.76923076923077 8.25  L 2.76923076923077 10.0833333333333  L 9.23076923076923 10.0833333333333  L 9.23076923076923 8.25  L 2.76923076923077 8.25  Z M 2.76923076923077 0.916666666666667  L 2.76923076923077 5.5  L 9.23076923076923 5.5  L 9.23076923076923 2.75  L 8.07692307692308 2.75  C 7.88461538461539 2.75  7.72115384615385 2.68315972222222  7.58653846153846 2.54947916666667  C 7.45192307692308 2.41579861111111  7.38461538461539 2.25347222222222  7.38461538461539 2.0625  L 7.38461538461539 0.916666666666667  L 2.76923076923077 0.916666666666667  Z M 10.9399038461538 6.28059895833333  C 11.03125 6.18988715277778  11.0769230769231 6.08246527777778  11.0769230769231 5.95833333333333  C 11.0769230769231 5.83420138888889  11.03125 5.72677951388889  10.9399038461538 5.63606770833333  C 10.8485576923077 5.54535590277778  10.7403846153846 5.5  10.6153846153846 5.5  C 10.4903846153846 5.5  10.3822115384615 5.54535590277778  10.2908653846154 5.63606770833333  C 10.1995192307692 5.72677951388889  10.1538461538462 5.83420138888889  10.1538461538462 5.95833333333333  C 10.1538461538462 6.08246527777778  10.1995192307692 6.18988715277778  10.2908653846154 6.28059895833333  C 10.3822115384615 6.37131076388889  10.4903846153846 6.41666666666667  10.6153846153846 6.41666666666667  C 10.7403846153846 6.41666666666667  10.8485576923077 6.37131076388889  10.9399038461538 6.28059895833333  Z M 11.5925480769231 4.98795572916667  C 11.8641826923077 5.25770399305556  12 5.58116319444444  12 5.95833333333333  L 12 8.9375  C 12 8.99956597222222  11.9771634615385 9.05327690972222  11.9314903846154 9.0986328125  C 11.8858173076923 9.14398871527778  11.8317307692308 9.16666666666667  11.7692307692308 9.16666666666667  L 10.1538461538462 9.16666666666667  L 10.1538461538462 10.3125  C 10.1538461538462 10.5034722222222  10.0865384615385 10.6657986111111  9.95192307692308 10.7994791666667  C 9.81730769230769 10.9331597222222  9.65384615384615 11  9.46153846153846 11  L 2.53846153846154 11  C 2.34615384615385 11  2.18269230769231 10.9331597222222  2.04807692307692 10.7994791666667  C 1.91346153846154 10.6657986111111  1.84615384615385 10.5034722222222  1.84615384615385 10.3125  L 1.84615384615385 9.16666666666667  L 0.230769230769231 9.16666666666667  C 0.168269230769231 9.16666666666667  0.114182692307692 9.14398871527778  0.0685096153846154 9.0986328125  C 0.0228365384615385 9.05327690972222  0 8.99956597222222  0 8.9375  L 0 5.95833333333333  C 0 5.58116319444444  0.135817307692308 5.25770399305556  0.407451923076923 4.98795572916667  C 0.679086538461538 4.71820746527778  1.00480769230769 4.58333333333333  1.38461538461538 4.58333333333333  L 1.84615384615385 4.58333333333333  L 1.84615384615385 0.6875  C 1.84615384615385 0.496527777777777  1.91346153846154 0.334201388888887  2.04807692307692 0.200520833333333  C 2.18269230769231 0.0668402777777772  2.34615384615385 0  2.53846153846154 0  L 7.38461538461539 0  C 7.57692307692308 0  7.78846153846154 0.0477430555555545  8.01923076923077 0.143229166666667  C 8.25 0.238715277777777  8.43269230769231 0.35329861111111  8.56730769230769 0.486979166666667  L 9.66346153846154 1.57552083333333  C 9.79807692307692 1.70920138888889  9.91346153846154 1.890625  10.0096153846154 2.11979166666667  C 10.1057692307692 2.34895833333333  10.1538461538462 2.55902777777778  10.1538461538462 2.75  L 10.1538461538462 4.58333333333333  L 10.6153846153846 4.58333333333333  C 10.9951923076923 4.58333333333333  11.3209134615385 4.71820746527778  11.5925480769231 4.98795572916667  Z " fill-rule="nonzero" fill="#ffffff" stroke="none" transform="matrix(1 0 0 1 853 140 )" />
  </g>
</svg>