<?xml version="1.0" encoding="utf-8"?>
<svg version="1.1" xmlns:xlink="http://www.w3.org/1999/xlink" width="18px" height="18px" xmlns="http://www.w3.org/2000/svg">
  <g transform="matrix(1 0 0 1 -575 -147 )">
    <path d="M 3.77330895795247 15.2172854534388  C 3.91224862888483 15.0785149117468  3.98171846435101 14.9141813755326  3.98171846435101 14.7242848447961  C 3.98171846435101 14.5343883140596  3.91224862888483 14.3700547778454  3.77330895795247 14.2312842361534  C 3.63436928702011 14.0925136944613  3.46983546617916 14.0231284236153  3.27970749542962 14.0231284236153  C 3.08957952468007 14.0231284236153  2.92504570383912 14.0925136944613  2.78610603290676 14.2312842361534  C 2.64716636197441 14.3700547778454  2.57769652650823 14.5343883140596  2.57769652650823 14.7242848447961  C 2.57769652650823 14.9141813755326  2.64716636197441 15.0785149117468  2.78610603290676 15.2172854534388  C 2.92504570383912 15.3560559951309  3.08957952468007 15.4254412659769  3.27970749542962 15.4254412659769  C 3.46983546617916 15.4254412659769  3.63436928702011 15.3560559951309  3.77330895795247 15.2172854534388  Z M 9.14259597806216 8.86853317102861  C 9.69469835466179 9.4199634814364  10.3290676416819 9.83810103469263  11.0457038391225 10.1229458307973  L 3.56489945155393 17.5946439440049  C 3.29433272394881 17.8648813146683  2.96526508226691 18  2.57769652650823 18  C 2.19744058500914 18  1.86471663619744 17.8648813146683  1.57952468007313 17.5946439440049  L 0.416819012797075 16.4114424832623  C 0.138939670932358 16.1485088253195  0 15.8198417528911  0 15.4254412659769  C 0 15.0383444917833  0.138939670932358 14.7060255629945  0.416819012797075 14.4284844796105  L 7.88665447897623 6.96774193548387  C 8.17184643510055 7.6835057821059  8.59049360146252 8.31710286062081  9.14259597806216 8.86853317102861  Z M 17.9067641681901 5.08338405356056  C 17.9689213893967 5.15642118076689  18 5.2477175897748  18 5.3572732805843  C 18 5.64211807668898  17.9159049360146 6.02921485088253  17.7477148080439 6.51856360316494  C 17.4040219378428 7.49726110772976  16.8025594149909 8.2915398660986  15.9433272394881 8.90139987827146  C 15.0840950639854 9.51125989044431  14.1389396709324 9.81618989653074  13.1078610603291 9.81618989653074  C 11.7550274223035 9.81618989653074  10.5978062157221 9.33597078514912  9.63619744058501 8.37553256238588  C 8.6745886654479 7.41509433962264  8.19378427787934 6.25928180158247  8.19378427787934 4.90809494826537  C 8.19378427787934 3.55690809494826  8.6745886654479 2.40109555690809  9.63619744058501 1.44065733414486  C 10.5978062157221 0.480219111381618  11.7550274223035 0  13.1078610603291 0  C 13.5319926873857 0  13.9762340036563 0.060255629945223  14.4405850091408 0.180766889835667  C 14.9049360146252 0.301278149726111  15.2979890310786 0.471089470480828  15.6197440585009 0.690200852099818  C 15.7367458866545 0.770541692026779  15.7952468007313 0.87279367011564  15.7952468007313 0.996956786366403  C 15.7952468007313 1.12111990261716  15.7367458866545 1.22337188070602  15.6197440585009 1.30371272063299  L 12.4058500914077 3.15520389531345  L 12.4058500914077 5.60925136944614  L 14.5228519195612 6.78149726110773  C 14.5594149908592 6.75958612294583  14.8482632541133 6.58247108947048  15.3893967093236 6.25015216068168  C 15.9305301645338 5.91783323189288  16.4259597806216 5.62203286670724  16.8756855575868 5.36275106512477  C 17.3254113345521 5.1034692635423  17.5831809872029 4.97382836275106  17.6489945155393 4.97382836275106  C 17.7586837294333 4.97382836275106  17.8446069469835 5.01034692635423  17.9067641681901 5.08338405356056  Z " fill-rule="nonzero" fill="#3885b1" stroke="none" transform="matrix(1 0 0 1 575 147 )" />
  </g>
</svg>