<?xml version="1.0" encoding="utf-8"?>
<svg version="1.1" xmlns:xlink="http://www.w3.org/1999/xlink" width="22px" height="19px" xmlns="http://www.w3.org/2000/svg">
  <g transform="matrix(1 0 0 1 -184 -131 )">
    <path d="M 20.4285714285714 1.5812743823147  L 20.4285714285714 6.32509752925878  C 20.8623511904762 6.32509752925878  21.2327008928571 6.4795188556567  21.5396205357143 6.78836150845254  C 21.8465401785714 7.09720416124837  22 7.46987429562202  22 7.90637191157347  C 22 8.34286952752492  21.8465401785714 8.71553966189857  21.5396205357143 9.02438231469441  C 21.2327008928571 9.33322496749025  20.8623511904762 9.48764629388817  20.4285714285714 9.48764629388817  L 20.4285714285714 14.2314694408322  C 20.4285714285714 14.6597312527091  20.2730654761905 15.0303424360642  19.9620535714286 15.3433029908973  C 19.6510416666667 15.6562635457304  19.2827380952381 15.8127438231469  18.8571428571429 15.8127438231469  C 15.4441964285714 12.9549198092761  12.1212797619048 11.3901170351105  8.88839285714286 11.1183355006502  C 8.41369047619048 11.2748157780668  8.04129464285714 11.5465973125271  7.77120535714286 11.9336801040312  C 7.50111607142857 12.3207628955353  7.37425595238095 12.7346120502817  7.390625 13.1752275682705  C 7.40699404761905 13.6158430862592  7.57068452380952 13.9967490247074  7.88169642857143 14.3179453836151  C 7.71800595238095 14.5897269180754  7.62388392857143 14.8594495015171  7.59933035714286 15.1271131339402  C 7.57477678571429 15.3947767663632  7.59933035714286 15.6336150845254  7.67299107142857 15.8436280884265  C 7.74665178571429 16.0536410923277  7.88374255952381 16.280125704378  8.08426339285714 16.5230819245774  C 8.28478422619048 16.7660381447768  8.48121279761905 16.9719332466407  8.67354910714286 17.1407672301691  C 8.86588541666667 17.3096012136974  9.11755952380952 17.51755526658  9.42857142857143 17.7646293888166  C 9.19122023809524 18.2423060251409  8.73493303571428 18.5840918942349  8.05970982142857 18.7899869960988  C 7.38448660714286 18.9958820979627  6.69494047619048 19.0432379713914  5.99107142857143 18.9320546163849  C 5.28720238095238 18.8208712613784  4.74702380952381 18.5923276983095  4.37053571428571 18.2464239271782  C 4.31324404761905 18.0570004334634  4.19252232142857 17.6966840052016  4.00837053571429 17.1654746423927  C 3.82421875 16.6342652795839  3.69326636904762 16.2451235370611  3.61551339285714 15.9980494148244  C 3.53776041666667 15.7509752925878  3.44363839285714 15.38448201127  3.33314732142857 14.8985695708713  C 3.22265625 14.4126571304725  3.16127232142857 13.9967490247074  3.14899553571429 13.6508452535761  C 3.13671875 13.3049414824447  3.15104166666667 12.8993281317729  3.19196428571429 12.4340052015605  C 3.23288690476191 11.9686822713481  3.32291666666667 11.5136540962289  3.46205357142857 11.0689206762029  L 1.96428571428571 11.0689206762029  C 1.42410714285714 11.0689206762029  0.961681547619048 10.8753792804508  0.577008928571429 10.4882964889467  C 0.19233630952381 10.1012136974426  0 9.63589076723017  0 9.09232769830949  L 0 6.72041612483745  C 0 6.17685305591678  0.19233630952381 5.71153012570438  0.577008928571429 5.32444733420026  C 0.961681547619048 4.93736454269614  1.42410714285714 4.74382314694408  1.96428571428571 4.74382314694408  L 7.85714285714286 4.74382314694408  C 11.4174107142857 4.74382314694408  15.0840773809524 3.16254876462939  18.8571428571429 0  C 19.2827380952381 0  19.6510416666667 0.156480277416556  19.9620535714286 0.469440832249675  C 20.2730654761905 0.78240138708279  20.4285714285714 1.1530125704378  20.4285714285714 1.5812743823147  Z M 9.42857142857143 9.574122236671  C 12.5141369047619 9.92002600780234  15.656994047619 11.3242306025141  18.8571428571429 13.7867360208062  L 18.8571428571429 2.00130039011703  C 15.6324404761905 4.48851322063286  12.4895833333333 5.90095361941916  9.42857142857143 6.23862158647594  L 9.42857142857143 9.574122236671  Z " fill-rule="nonzero" fill="#3885b1" stroke="none" transform="matrix(1 0 0 1 184 131 )" />
  </g>
</svg>