<?xml version="1.0" encoding="utf-8"?>
<svg version="1.1" xmlns:xlink="http://www.w3.org/1999/xlink" width="12px" height="12px" viewBox="194 274.5  12 12" xmlns="http://www.w3.org/2000/svg">
  <path d="M 200 274.5  C 203.36 274.5  206 277.14  206 280.5  C 206 283.86  203.36 286.5  200 286.5  C 196.64 286.5  194 283.86  194 280.5  C 194 277.14  196.64 274.5  200 274.5  Z " fill-rule="nonzero" fill="#f0f0f0" stroke="none" />
  <path d="M 200 275  C 203.08 275  205.5 277.42  205.5 280.5  C 205.5 283.58  203.08 286  200 286  C 196.92 286  194.5 283.58  194.5 280.5  C 194.5 277.42  196.92 275  200 275  Z " stroke-width="1" stroke="#797979" fill="none" />
  <path d="M 200 283.5  C 198.32 283.5  197 282.18  197 280.5  C 197 278.82  198.32 277.5  200 277.5  C 201.68 277.5  203 278.82  203 280.5  C 203 282.18  201.68 283.5  200 283.5  " fill-rule="nonzero" fill="#797979" stroke="none" />
</svg>