<?xml version="1.0" encoding="utf-8"?>
<svg version="1.1" xmlns:xlink="http://www.w3.org/1999/xlink" width="12px" height="12px" viewBox="194 252.5  12 12" xmlns="http://www.w3.org/2000/svg">
  <path d="M 200 252.5  C 203.36 252.5  206 255.14  206 258.5  C 206 261.86  203.36 264.5  200 264.5  C 196.64 264.5  194 261.86  194 258.5  C 194 255.14  196.64 252.5  200 252.5  Z " fill-rule="nonzero" fill="#f0f0f0" stroke="none" />
  <path d="M 200 253  C 203.08 253  205.5 255.42  205.5 258.5  C 205.5 261.58  203.08 264  200 264  C 196.92 264  194.5 261.58  194.5 258.5  C 194.5 255.42  196.92 253  200 253  Z " stroke-width="1" stroke="#797979" fill="none" />
  <path d="M 200 261.5  C 198.32 261.5  197 260.18  197 258.5  C 197 256.82  198.32 255.5  200 255.5  C 201.68 255.5  203 256.82  203 258.5  C 203 260.18  201.68 261.5  200 261.5  " fill-rule="nonzero" fill="#797979" stroke="none" />
</svg>