<?xml version="1.0" encoding="utf-8"?>
<svg version="1.1" xmlns:xlink="http://www.w3.org/1999/xlink" width="12px" height="12px" viewBox="521 272.5  12 12" xmlns="http://www.w3.org/2000/svg">
  <path d="M 527 272.5  C 530.36 272.5  533 275.14  533 278.5  C 533 281.86  530.36 284.5  527 284.5  C 523.64 284.5  521 281.86  521 278.5  C 521 275.14  523.64 272.5  527 272.5  Z " fill-rule="nonzero" fill="#ffffff" stroke="none" />
  <path d="M 527 273  C 530.08 273  532.5 275.42  532.5 278.5  C 532.5 281.58  530.08 284  527 284  C 523.92 284  521.5 281.58  521.5 278.5  C 521.5 275.42  523.92 273  527 273  Z " stroke-width="1" stroke="#797979" fill="none" />
  <path d="M 527 281.5  C 525.32 281.5  524 280.18  524 278.5  C 524 276.82  525.32 275.5  527 275.5  C 528.68 275.5  530 276.82  530 278.5  C 530 280.18  528.68 281.5  527 281.5  " fill-rule="nonzero" fill="#797979" stroke="none" />
</svg>