<?xml version="1.0" encoding="utf-8"?>
<svg version="1.1" xmlns:xlink="http://www.w3.org/1999/xlink" width="12px" height="12px" viewBox="521 228.5  12 12" xmlns="http://www.w3.org/2000/svg">
  <path d="M 527 228.5  C 530.36 228.5  533 231.14  533 234.5  C 533 237.86  530.36 240.5  527 240.5  C 523.64 240.5  521 237.86  521 234.5  C 521 231.14  523.64 228.5  527 228.5  Z " fill-rule="nonzero" fill="#ffffff" stroke="none" />
  <path d="M 527 229  C 530.08 229  532.5 231.42  532.5 234.5  C 532.5 237.58  530.08 240  527 240  C 523.92 240  521.5 237.58  521.5 234.5  C 521.5 231.42  523.92 229  527 229  Z " stroke-width="1" stroke="#797979" fill="none" />
  <path d="M 527 237.5  C 525.32 237.5  524 236.18  524 234.5  C 524 232.82  525.32 231.5  527 231.5  C 528.68 231.5  530 232.82  530 234.5  C 530 236.18  528.68 237.5  527 237.5  " fill-rule="nonzero" fill="#797979" stroke="none" />
</svg>