<?xml version="1.0" encoding="utf-8"?>
<svg version="1.1" xmlns:xlink="http://www.w3.org/1999/xlink" width="12px" height="12px" viewBox="350 231.5  12 12" xmlns="http://www.w3.org/2000/svg">
  <path d="M 356 231.5  C 359.36 231.5  362 234.14  362 237.5  C 362 240.86  359.36 243.5  356 243.5  C 352.64 243.5  350 240.86  350 237.5  C 350 234.14  352.64 231.5  356 231.5  Z " fill-rule="nonzero" fill="#ffffff" stroke="none" />
  <path d="M 356 232  C 359.08 232  361.5 234.42  361.5 237.5  C 361.5 240.58  359.08 243  356 243  C 352.92 243  350.5 240.58  350.5 237.5  C 350.5 234.42  352.92 232  356 232  Z " stroke-width="1" stroke="#797979" fill="none" />
  <path d="M 356 240.5  C 354.32 240.5  353 239.18  353 237.5  C 353 235.82  354.32 234.5  356 234.5  C 357.68 234.5  359 235.82  359 237.5  C 359 239.18  357.68 240.5  356 240.5  " fill-rule="nonzero" fill="#797979" stroke="none" />
</svg>