<?xml version="1.0" encoding="utf-8"?>
<svg version="1.1" xmlns:xlink="http://www.w3.org/1999/xlink" width="12px" height="12px" viewBox="194 206.5  12 12" xmlns="http://www.w3.org/2000/svg">
  <path d="M 200 206.5  C 203.36 206.5  206 209.14  206 212.5  C 206 215.86  203.36 218.5  200 218.5  C 196.64 218.5  194 215.86  194 212.5  C 194 209.14  196.64 206.5  200 206.5  Z " fill-rule="nonzero" fill="#ffffff" stroke="none" />
  <path d="M 200 207  C 203.08 207  205.5 209.42  205.5 212.5  C 205.5 215.58  203.08 218  200 218  C 196.92 218  194.5 215.58  194.5 212.5  C 194.5 209.42  196.92 207  200 207  Z " stroke-width="1" stroke="#797979" fill="none" />
  <path d="M 200 215.5  C 198.32 215.5  197 214.18  197 212.5  C 197 210.82  198.32 209.5  200 209.5  C 201.68 209.5  203 210.82  203 212.5  C 203 214.18  201.68 215.5  200 215.5  " fill-rule="nonzero" fill="#797979" stroke="none" />
</svg>