<?xml version="1.0" encoding="utf-8"?>
<svg version="1.1" xmlns:xlink="http://www.w3.org/1999/xlink" width="12px" height="12px" viewBox="521 206.5  12 12" xmlns="http://www.w3.org/2000/svg">
  <path d="M 527 206.5  C 530.36 206.5  533 209.14  533 212.5  C 533 215.86  530.36 218.5  527 218.5  C 523.64 218.5  521 215.86  521 212.5  C 521 209.14  523.64 206.5  527 206.5  Z " fill-rule="nonzero" fill="#ffffff" stroke="none" />
  <path d="M 527 207  C 530.08 207  532.5 209.42  532.5 212.5  C 532.5 215.58  530.08 218  527 218  C 523.92 218  521.5 215.58  521.5 212.5  C 521.5 209.42  523.92 207  527 207  Z " stroke-width="1" stroke="#797979" fill="none" />
  <path d="M 527 215.5  C 525.32 215.5  524 214.18  524 212.5  C 524 210.82  525.32 209.5  527 209.5  C 528.68 209.5  530 210.82  530 212.5  C 530 214.18  528.68 215.5  527 215.5  " fill-rule="nonzero" fill="#797979" stroke="none" />
</svg>