<?xml version="1.0" encoding="utf-8"?>
<svg version="1.1" xmlns:xlink="http://www.w3.org/1999/xlink" width="12px" height="12px" viewBox="666 206.5  12 12" xmlns="http://www.w3.org/2000/svg">
  <path d="M 672 206.5  C 675.36 206.5  678 209.14  678 212.5  C 678 215.86  675.36 218.5  672 218.5  C 668.64 218.5  666 215.86  666 212.5  C 666 209.14  668.64 206.5  672 206.5  Z " fill-rule="nonzero" fill="#ffffff" stroke="none" />
  <path d="M 672 207  C 675.08 207  677.5 209.42  677.5 212.5  C 677.5 215.58  675.08 218  672 218  C 668.92 218  666.5 215.58  666.5 212.5  C 666.5 209.42  668.92 207  672 207  Z " stroke-width="1" stroke="#797979" fill="none" />
  <path d="M 672 215.5  C 670.32 215.5  669 214.18  669 212.5  C 669 210.82  670.32 209.5  672 209.5  C 673.68 209.5  675 210.82  675 212.5  C 675 214.18  673.68 215.5  672 215.5  " fill-rule="nonzero" fill="#797979" stroke="none" />
</svg>