<?xml version="1.0" encoding="utf-8"?>
<svg version="1.1" xmlns:xlink="http://www.w3.org/1999/xlink" width="12px" height="12px" viewBox="773 228.5  12 12" xmlns="http://www.w3.org/2000/svg">
  <path d="M 779 228.5  C 782.36 228.5  785 231.14  785 234.5  C 785 237.86  782.36 240.5  779 240.5  C 775.64 240.5  773 237.86  773 234.5  C 773 231.14  775.64 228.5  779 228.5  Z " fill-rule="nonzero" fill="#ffffff" stroke="none" />
  <path d="M 779 229  C 782.08 229  784.5 231.42  784.5 234.5  C 784.5 237.58  782.08 240  779 240  C 775.92 240  773.5 237.58  773.5 234.5  C 773.5 231.42  775.92 229  779 229  Z " stroke-width="1" stroke="#797979" fill="none" />
  <path d="M 779 237.5  C 777.32 237.5  776 236.18  776 234.5  C 776 232.82  777.32 231.5  779 231.5  C 780.68 231.5  782 232.82  782 234.5  C 782 236.18  780.68 237.5  779 237.5  " fill-rule="nonzero" fill="#797979" stroke="none" />
</svg>