<?xml version="1.0" encoding="utf-8"?>
<svg version="1.1" xmlns:xlink="http://www.w3.org/1999/xlink" width="12px" height="12px" viewBox="968 228.5  12 12" xmlns="http://www.w3.org/2000/svg">
  <path d="M 974 228.5  C 977.36 228.5  980 231.14  980 234.5  C 980 237.86  977.36 240.5  974 240.5  C 970.64 240.5  968 237.86  968 234.5  C 968 231.14  970.64 228.5  974 228.5  Z " fill-rule="nonzero" fill="#ffffff" stroke="none" />
  <path d="M 974 229  C 977.08 229  979.5 231.42  979.5 234.5  C 979.5 237.58  977.08 240  974 240  C 970.92 240  968.5 237.58  968.5 234.5  C 968.5 231.42  970.92 229  974 229  Z " stroke-width="1" stroke="#797979" fill="none" />
  <path d="M 974 237.5  C 972.32 237.5  971 236.18  971 234.5  C 971 232.82  972.32 231.5  974 231.5  C 975.68 231.5  977 232.82  977 234.5  C 977 236.18  975.68 237.5  974 237.5  " fill-rule="nonzero" fill="#797979" stroke="none" />
</svg>