<?xml version="1.0" encoding="utf-8"?>
<svg version="1.1" xmlns:xlink="http://www.w3.org/1999/xlink" width="12px" height="12px" viewBox="968 206.5  12 12" xmlns="http://www.w3.org/2000/svg">
  <path d="M 974 206.5  C 977.36 206.5  980 209.14  980 212.5  C 980 215.86  977.36 218.5  974 218.5  C 970.64 218.5  968 215.86  968 212.5  C 968 209.14  970.64 206.5  974 206.5  Z " fill-rule="nonzero" fill="#f0f0f0" stroke="none" />
  <path d="M 974 207  C 977.08 207  979.5 209.42  979.5 212.5  C 979.5 215.58  977.08 218  974 218  C 970.92 218  968.5 215.58  968.5 212.5  C 968.5 209.42  970.92 207  974 207  Z " stroke-width="1" stroke="#797979" fill="none" />
  <path d="M 974 215.5  C 972.32 215.5  971 214.18  971 212.5  C 971 210.82  972.32 209.5  974 209.5  C 975.68 209.5  977 210.82  977 212.5  C 977 214.18  975.68 215.5  974 215.5  " fill-rule="nonzero" fill="#797979" stroke="none" />
</svg>