<?xml version="1.0" encoding="utf-8"?>
<svg version="1.1" xmlns:xlink="http://www.w3.org/1999/xlink" width="12px" height="12px" viewBox="968 250.5  12 12" xmlns="http://www.w3.org/2000/svg">
  <path d="M 974 250.5  C 977.36 250.5  980 253.14  980 256.5  C 980 259.86  977.36 262.5  974 262.5  C 970.64 262.5  968 259.86  968 256.5  C 968 253.14  970.64 250.5  974 250.5  Z " fill-rule="nonzero" fill="#f0f0f0" stroke="none" />
  <path d="M 974 251  C 977.08 251  979.5 253.42  979.5 256.5  C 979.5 259.58  977.08 262  974 262  C 970.92 262  968.5 259.58  968.5 256.5  C 968.5 253.42  970.92 251  974 251  Z " stroke-width="1" stroke="#797979" fill="none" />
  <path d="M 974 259.5  C 972.32 259.5  971 258.18  971 256.5  C 971 254.82  972.32 253.5  974 253.5  C 975.68 253.5  977 254.82  977 256.5  C 977 258.18  975.68 259.5  974 259.5  " fill-rule="nonzero" fill="#797979" stroke="none" />
</svg>