<?xml version="1.0" encoding="utf-8"?>
<svg version="1.1" xmlns:xlink="http://www.w3.org/1999/xlink" width="12px" height="12px" viewBox="773 206.5  12 12" xmlns="http://www.w3.org/2000/svg">
  <path d="M 779 206.5  C 782.36 206.5  785 209.14  785 212.5  C 785 215.86  782.36 218.5  779 218.5  C 775.64 218.5  773 215.86  773 212.5  C 773 209.14  775.64 206.5  779 206.5  Z " fill-rule="nonzero" fill="#f0f0f0" stroke="none" />
  <path d="M 779 207  C 782.08 207  784.5 209.42  784.5 212.5  C 784.5 215.58  782.08 218  779 218  C 775.92 218  773.5 215.58  773.5 212.5  C 773.5 209.42  775.92 207  779 207  Z " stroke-width="1" stroke="#797979" fill="none" />
  <path d="M 779 215.5  C 777.32 215.5  776 214.18  776 212.5  C 776 210.82  777.32 209.5  779 209.5  C 780.68 209.5  782 210.82  782 212.5  C 782 214.18  780.68 215.5  779 215.5  " fill-rule="nonzero" fill="#797979" stroke="none" />
</svg>