<?xml version="1.0" encoding="utf-8"?>
<svg version="1.1" xmlns:xlink="http://www.w3.org/1999/xlink" width="15px" height="12px" xmlns="http://www.w3.org/2000/svg">
  <g transform="matrix(1 0 0 1 0 -251 )">
    <path d="M 3.9219512195122 4.61538461538461  L 1.55853658536585 4.61538461538461  L 6.11707317073171 9.41105769230769  L 3.9219512195122 4.61538461538461  Z M 4.94634146341463 4.61538461538461  L 7.5 10.1826923076923  L 10.0536585365854 4.61538461538461  L 4.94634146341463 4.61538461538461  Z M 1.41219512195122 3.69230769230769  L 3.94390243902439 3.69230769230769  L 5.43658536585366 0.923076923076922  L 3.51951219512195 0.923076923076922  L 1.41219512195122 3.69230769230769  Z M 11.0780487804878 4.61538461538461  L 8.88292682926829 9.41105769230769  L 13.4414634146341 4.61538461538461  L 11.0780487804878 4.61538461538461  Z M 6.49756097560976 0.923076923076922  L 5.00487804878049 3.69230769230769  L 9.99512195121951 3.69230769230769  L 8.50243902439024 0.923076923076922  L 6.49756097560976 0.923076923076922  Z M 9.56341463414634 0.923076923076922  L 11.0560975609756 3.69230769230769  L 13.5878048780488 3.69230769230769  L 11.480487804878 0.923076923076922  L 9.56341463414634 0.923076923076922  Z M 11.7146341463415 0  C 11.8756097560976 0  12 0.0624999999999991  12.0878048780488 0.1875  L 14.8975609756098 3.87980769230769  C 14.9658536585366 3.96634615384615  14.9975609756098 4.06610576923077  14.9926829268293 4.17908653846154  C 14.9878048780488 4.29206730769231  14.9463414634146 4.38942307692307  14.8682926829268 4.47115384615385  L 7.84390243902439 11.8557692307692  C 7.75609756097561 11.9519230769231  7.64146341463415 12  7.5 12  C 7.35853658536585 12  7.24390243902439 11.9519230769231  7.15609756097561 11.8557692307692  L 0.131707317073171 4.47115384615385  C 0.0536585365853659 4.38942307692307  0.0121951219512195 4.29206730769231  0.00731707317073171 4.17908653846154  C 0.0024390243902439 4.06610576923077  0.0341463414634146 3.96634615384615  0.102439024390244 3.87980769230769  L 2.91219512195122 0.1875  C 3 0.0624999999999991  3.12439024390244 0  3.28536585365854 0  L 11.7146341463415 0  Z " fill-rule="nonzero" fill="#f59a23" stroke="none" transform="matrix(1 0 0 1 0 251 )" />
  </g>
</svg>