<?xml version="1.0" encoding="utf-8"?>
<svg version="1.1" xmlns:xlink="http://www.w3.org/1999/xlink" width="20px" height="20px" xmlns="http://www.w3.org/2000/svg">
  <g transform="matrix(1 0 0 1 -974 -667 )">
    <path d="M 19.9397590361446 10  C 19.9397590361446 4.51325301204819  15.4867469879518 0.0602409638554217  10 0.0602409638554217  C 4.51325301204819 0.0602409638554217  0.0602409638554217 4.51325301204819  0.0602409638554217 10  C 0.0602409638554217 15.4867469879518  4.51325301204819 19.9397590361446  10 19.9397590361446  C 15.4867469879518 19.9397590361446  19.9397590361446 15.4867469879518  19.9397590361446 10  Z M 14.5027108433735 12.9123493975904  C 14.4927710843373 14.7313253012048  13.1310240963855 15.7253012048193  11.4015060240964 16.053313253012  L 11.4015060240964 17.9518072289157  L 8.74759036144578 17.9518072289157  L 8.74759036144578 16.0334337349398  C 7.04789156626506 15.6756024096386  5.6066265060241 14.5822289156627  5.49728915662651 12.6539156626506  L 7.44548192771084 12.6539156626506  C 7.54487951807229 13.6975903614458  8.2605421686747 14.5126506024096  10.0795180722892 14.5126506024096  C 12.0277108433735 14.5126506024096  12.4650602409639 13.5385542168675  12.4650602409639 12.9322289156626  C 12.4650602409639 12.1072289156626  12.0277108433735 11.3319277108434  9.81114457831325 10.8051204819277  C 7.3460843373494 10.208734939759  5.65632530120482 9.19487951807229  5.65632530120482 7.15722891566265  C 5.65632530120482 5.44759036144578  7.03795180722892 4.33433734939759  8.74759036144578 3.96656626506024  L 8.74759036144578 2.04819277108434  L 11.4015060240964 2.04819277108434  L 11.4015060240964 3.98644578313253  C 13.2503012048193 4.43373493975904  14.1746987951807 5.83524096385542  14.2343373493976 7.35602409638554  L 12.2861445783133 7.35602409638554  C 12.2364457831325 6.25271084337349  11.65 5.49728915662651  10.0795180722892 5.49728915662651  C 8.58855421686747 5.49728915662651  7.69397590361446 6.17319277108434  7.69397590361446 7.12740963855422  C 7.69397590361446 7.96234939759036  8.34006024096385 8.50903614457831  10.3478915662651 9.02590361445783  C 12.3557228915663 9.54277108433735  14.5027108433735 10.4075301204819  14.5027108433735 12.9123493975904  Z " fill-rule="nonzero" fill="#3885b1" stroke="none" transform="matrix(1 0 0 1 974 667 )" />
  </g>
</svg>