<?xml version="1.0" encoding="utf-8"?>
<svg version="1.1" xmlns:xlink="http://www.w3.org/1999/xlink" width="25px" height="11px" xmlns="http://www.w3.org/2000/svg">
  <g transform="matrix(1 0 0 1 -780 -108 )">
    <path d="M 24.8553240740741 5.13524057217165  C 24.951774691358 5.23060251408756  25 5.34026874729085  25 5.46423927178153  C 25 5.5977459904638  24.951774691358 5.71218032076289  24.8553240740741 5.8075422626788  L 19.2997685185185 10.8712613784135  C 19.1454475308642 11.0047680970958  18.9766589506173 11.0333766796706  18.7934027777778 10.9570871261378  C 18.6101466049383 10.8712613784135  18.5185185185185 10.7329865626355  18.5185185185185 10.5422626788036  L 18.5185185185185 7.33810143042913  L 0.462962962962963 7.33810143042913  C 0.327932098765432 7.33810143042913  0.217013888888889 7.29518855656697  0.130208333333333 7.20936280884265  C 0.0434027777777778 7.12353706111834  0 7.01387082791504  0 6.88036410923277  L 0 4.13394018205462  C 0 4.00043346337235  0.0434027777777778 3.89076723016905  0.130208333333333 3.80494148244473  C 0.217013888888889 3.71911573472042  0.327932098765432 3.67620286085826  0.462962962962963 3.67620286085826  L 18.5185185185185 3.67620286085826  L 18.5185185185185 0.472041612483746  C 18.5185185185185 0.271781534460338  18.6101466049383 0.133506718682271  18.7934027777778 0.0572171651495451  C 18.9766589506173 -0.0190723883831829  19.1454475308642 0.00476809709579451  19.2997685185185 0.128738621586476  L 24.8553240740741 5.13524057217165  Z " fill-rule="nonzero" fill="#000000" stroke="none" transform="matrix(1 0 0 1 780 108 )" />
  </g>
</svg>