<?xml version="1.0" encoding="utf-8"?>
<svg version="1.1" xmlns:xlink="http://www.w3.org/1999/xlink" width="23px" height="18px" xmlns="http://www.w3.org/2000/svg">
  <g transform="matrix(1 0 0 1 -575 -147 )">
    <path d="M 6.01365853658537 6.92307692307692  L 2.38975609756098 6.92307692307692  L 9.37951219512195 14.1165865384615  L 6.01365853658537 6.92307692307692  Z M 7.58439024390244 6.92307692307692  L 11.5 15.2740384615385  L 15.4156097560976 6.92307692307692  L 7.58439024390244 6.92307692307692  Z M 2.16536585365854 5.53846153846154  L 6.04731707317073 5.53846153846154  L 8.33609756097561 1.38461538461538  L 5.39658536585366 1.38461538461538  L 2.16536585365854 5.53846153846154  Z M 16.9863414634146 6.92307692307692  L 13.620487804878 14.1165865384615  L 20.610243902439 6.92307692307692  L 16.9863414634146 6.92307692307692  Z M 9.96292682926829 1.38461538461538  L 7.67414634146342 5.53846153846154  L 15.3258536585366 5.53846153846154  L 13.0370731707317 1.38461538461538  L 9.96292682926829 1.38461538461538  Z M 14.6639024390244 1.38461538461538  L 16.9526829268293 5.53846153846154  L 20.8346341463415 5.53846153846154  L 17.6034146341463 1.38461538461538  L 14.6639024390244 1.38461538461538  Z M 17.9624390243902 0  C 18.2092682926829 0  18.4 0.0937499999999987  18.5346341463415 0.28125  L 22.8429268292683 5.81971153846154  C 22.9476422764228 5.94951923076923  22.9962601626016 6.09915865384615  22.9887804878049 6.26862980769231  C 22.9813008130081 6.43810096153846  22.9177235772358 6.58413461538461  22.7980487804878 6.70673076923077  L 12.0273170731707 17.7836538461538  C 11.8926829268293 17.9278846153846  11.7169105691057 18  11.5 18  C 11.2830894308943 18  11.1073170731707 17.9278846153846  10.9726829268293 17.7836538461538  L 0.201951219512195 6.70673076923077  C 0.0822764227642276 6.58413461538461  0.0186991869918699 6.43810096153846  0.011219512195122 6.26862980769231  C 0.00373983739837398 6.09915865384615  0.0523577235772358 5.94951923076923  0.157073170731707 5.81971153846154  L 4.46536585365854 0.28125  C 4.6 0.0937499999999987  4.79073170731707 0  5.03756097560976 0  L 17.9624390243902 0  Z " fill-rule="nonzero" fill="#3885b1" stroke="none" transform="matrix(1 0 0 1 575 147 )" />
  </g>
</svg>