<?xml version="1.0" encoding="utf-8"?>
<svg version="1.1" xmlns:xlink="http://www.w3.org/1999/xlink" width="250px" height="25px" viewBox="465 471  250 25" xmlns="http://www.w3.org/2000/svg">
  <path d="M 466 474  A 2 2 0 0 1 468 472 L 712 472  A 2 2 0 0 1 714 474 L 714 493  A 2 2 0 0 1 712 495 L 468 495  A 2 2 0 0 1 466 493 L 466 474  Z " fill-rule="nonzero" fill="#f0f0f0" stroke="none" />
  <path d="M 465.5 474  A 2.5 2.5 0 0 1 468 471.5 L 712 471.5  A 2.5 2.5 0 0 1 714.5 474 L 714.5 493  A 2.5 2.5 0 0 1 712 495.5 L 468 495.5  A 2.5 2.5 0 0 1 465.5 493 L 465.5 474  Z " stroke-width="1" stroke="#cf0037" fill="none" stroke-opacity="0.698039215686274" />
</svg>