<?xml version="1.0" encoding="utf-8"?>
<svg version="1.1" xmlns:xlink="http://www.w3.org/1999/xlink" width="350px" height="25px" viewBox="465 412  350 25" xmlns="http://www.w3.org/2000/svg">
  <path d="M 466 415  A 2 2 0 0 1 468 413 L 812 413  A 2 2 0 0 1 814 415 L 814 434  A 2 2 0 0 1 812 436 L 468 436  A 2 2 0 0 1 466 434 L 466 415  Z " fill-rule="nonzero" fill="#ffffff" stroke="none" />
  <path d="M 465.5 415  A 2.5 2.5 0 0 1 468 412.5 L 812 412.5  A 2.5 2.5 0 0 1 814.5 415 L 814.5 434  A 2.5 2.5 0 0 1 812 436.5 L 468 436.5  A 2.5 2.5 0 0 1 465.5 434 L 465.5 415  Z " stroke-width="1" stroke="#cf0037" fill="none" stroke-opacity="0.698039215686274" />
</svg>