<?xml version="1.0" encoding="utf-8"?>
<svg version="1.1" xmlns:xlink="http://www.w3.org/1999/xlink" width="4px" height="4px" xmlns="http://www.w3.org/2000/svg">
  <g transform="matrix(1 0 0 1 -1248 -17 )">
    <path d="M 1250 17  C 1251.12 17  1252 17.88  1252 19  C 1252 20.12  1251.12 21  1250 21  C 1248.88 21  1248 20.12  1248 19  C 1248 17.88  1248.88 17  1250 17  Z " fill-rule="nonzero" fill="#7e7e7e" stroke="none" />
    <path d="M 1250 17.5  C 1250.84 17.5  1251.5 18.16  1251.5 19  C 1251.5 19.84  1250.84 20.5  1250 20.5  C 1249.16 20.5  1248.5 19.84  1248.5 19  C 1248.5 18.16  1249.16 17.5  1250 17.5  Z " stroke-width="1" stroke="#797979" fill="none" />
  </g>
</svg>