<!-- Generator: Adobe Illustrator 24.0.3, SVG Export Plug-In  -->
<svg version="1.1" xmlns="http://www.w3.org/2000/svg" xmlns:xlink="http://www.w3.org/1999/xlink" x="0px" y="0px"
	 width="2018.55px" height="1138.1px" viewBox="0 0 2018.55 1138.1" style="enable-background:new 0 0 2018.55 1138.1;"
	 xml:space="preserve">
<style type="text/css">
	.st0{opacity:0.3;}
	.st1{fill:none;stroke:#00758E;stroke-miterlimit:10;}
	.st2{opacity:0.2;}
	.st3{fill:#00758E;}
	.st4{fill:none;stroke:#00758E;stroke-width:2.4864;stroke-miterlimit:10;}
	.st5{fill:none;stroke:#00758E;stroke-width:1.7556;stroke-miterlimit:10;}
	.st6{fill:none;stroke:#00758E;stroke-width:1.984;stroke-miterlimit:10;}
	.st7{fill:none;stroke:#00758E;stroke-width:1.8751;stroke-miterlimit:10;}
	.st8{fill:none;stroke:#00758E;stroke-width:2.8757;stroke-miterlimit:10;}
	.st9{fill:none;stroke:#00758E;stroke-width:2.2645;stroke-miterlimit:10;}
	.st10{fill:none;stroke:#00758E;stroke-width:2.2889;stroke-miterlimit:10;}
	.st11{fill:none;}
</style>
<defs>
</defs>
<g class="st0">
	<polygon class="st1" points="1605.73,823.51 1286.24,855.01 1445.99,766.52 	"/>
	<polygon class="st1" points="1353.74,643.52 1286.24,855.01 1445.99,766.52 	"/>
	<polygon class="st1" points="1377.56,779.98 1214.23,1117.98 1469.8,855.01 	"/>
	<polygon class="st1" points="1286.24,855.01 1353.74,643.52 1218.75,823.51 	"/>
	<polygon class="st1" points="1286.24,855.01 1188.89,995.32 1218.75,823.51 	"/>
	<polygon class="st1" points="1286.24,855.01 1188.89,995.32 1366.12,1082.65 	"/>
	<polygon class="st1" points="946.03,713.43 1353.74,643.52 1218.75,823.51 	"/>
	<polygon class="st1" points="1218.75,823.51 946.03,713.43 1190.51,855.01 	"/>
	<polygon class="st1" points="1218.75,823.51 946.03,713.43 1061.23,546.65 	"/>
	<polygon class="st1" points="853.23,443.65 946.03,713.43 1061.23,546.65 	"/>
	<polyline class="st1" points="1061.23,546.65 1092.23,628.65 946.03,713.43 	"/>
	<polygon class="st1" points="853.23,443.65 1061.23,546.65 1044.23,359.65 	"/>
	<polygon class="st1" points="853.23,443.65 941.23,341.65 1044.23,359.65 	"/>
	<polygon class="st1" points="1237.57,409.65 1061.23,546.65 1044.23,359.65 	"/>
	<polygon class="st1" points="1237.57,409.65 1093.23,301.65 1044.23,359.65 	"/>
	<polygon class="st1" points="1116.34,643.52 1061.23,546.65 1044.23,359.65 	"/>
	<polygon class="st1" points="1218.75,823.51 1140.89,1019.98 997.56,902.65 	"/>
	<polygon class="st1" points="1218.75,823.51 1196.23,1087.37 1118.89,855.01 	"/>
	<polygon class="st1" points="1445.99,766.52 1605.73,823.51 1353.74,643.52 	"/>
	<polygon class="st1" points="993.23,468.65 1390.23,713.43 1377.56,779.98 	"/>
	<polygon class="st1" points="1442.1,883.52 1237.57,863.65 1125.23,619.65 	"/>
	<polyline class="st1" points="1366.12,1082.65 1689.23,883.52 1267.23,974.65 1366.12,1078.65 1469.8,1087.37 	"/>
	<polygon class="st1" points="1469.8,1087.37 1469.8,855.01 1702.23,1082.65 	"/>
	<polygon class="st1" points="1563.23,690.65 1218.75,745.65 1366.12,1078.65 	"/>
	<polyline class="st1" points="1218.75,745.65 1283.66,602.65 1563.23,690.65 	"/>
	<polygon class="st1" points="880.23,546.65 941.23,341.65 709.23,495.65 	"/>
	<polygon class="st1" points="709.23,495.65 686.23,432.65 907.23,399.65 	"/>
	<polygon class="st1" points="816.23,359.65 1125.23,619.65 806.53,414.68 	"/>
	<polygon class="st1" points="948.73,80.65 816.23,359.65 1044.23,359.65 	"/>
	<polygon class="st1" points="747.23,58.65 740.23,301.65 948.73,80.65 	"/>
	<polygon class="st1" points="747.23,58.65 936.64,0.65 948.73,80.65 	"/>
	<polygon class="st1" points="1066.23,157.65 740.23,301.65 571.23,162.65 	"/>
	<polygon class="st1" points="907.23,399.65 587.23,130.65 844.48,152.65 	"/>
	<polygon class="st1" points="571.23,162.65 686.23,432.65 907.23,399.65 	"/>
</g>
<g class="st2">
	<polygon class="st1" points="1035.88,841.07 716.4,872.56 876.14,784.07 	"/>
	<polygon class="st1" points="783.89,661.07 716.4,872.56 876.14,784.07 	"/>
	<polygon class="st1" points="807.71,797.53 644.38,1135.53 899.96,872.56 	"/>
	<polygon class="st1" points="716.4,872.56 783.89,661.07 648.9,841.07 	"/>
	<polygon class="st1" points="716.4,872.56 619.05,1012.87 648.9,841.07 	"/>
	<polygon class="st1" points="716.4,872.56 619.05,1012.87 796.27,1100.2 	"/>
	<polygon class="st1" points="376.18,730.98 783.89,661.07 648.9,841.07 	"/>
	<polygon class="st1" points="648.9,841.07 376.18,730.98 620.67,872.56 	"/>
	<polygon class="st1" points="648.9,841.07 376.18,730.98 491.38,564.2 	"/>
	<polygon class="st1" points="283.38,461.2 376.18,730.98 491.38,564.2 	"/>
	<polyline class="st1" points="491.38,564.2 522.38,646.2 376.18,730.98 	"/>
	<polygon class="st1" points="283.38,461.2 491.38,564.2 474.38,377.2 	"/>
	<polygon class="st1" points="283.38,461.2 371.38,359.2 474.38,377.2 	"/>
	<polygon class="st1" points="667.72,427.2 491.38,564.2 474.38,377.2 	"/>
	<polygon class="st1" points="667.72,427.2 523.38,319.2 474.38,377.2 	"/>
	<polygon class="st1" points="546.49,661.07 491.38,564.2 474.38,377.2 	"/>
	<polygon class="st1" points="648.9,841.07 571.05,1037.53 427.71,920.2 	"/>
	<polygon class="st1" points="648.9,841.07 626.38,1104.92 549.05,872.56 	"/>
	<polygon class="st1" points="876.14,784.07 1035.88,841.07 783.89,661.07 	"/>
	<polygon class="st1" points="423.38,486.2 820.38,730.98 807.71,797.53 	"/>
	<polygon class="st1" points="872.25,901.08 667.72,881.2 555.38,637.2 	"/>
	<polyline class="st1" points="796.27,1100.2 1119.38,901.08 697.38,992.2 796.27,1096.2 899.96,1104.92 	"/>
	<polygon class="st1" points="899.96,1104.92 899.96,872.56 1132.38,1100.2 	"/>
	<polygon class="st1" points="993.38,708.2 648.9,763.2 796.27,1096.2 	"/>
	<polyline class="st1" points="648.9,763.2 713.81,620.2 993.38,708.2 	"/>
	<polygon class="st1" points="310.38,564.2 371.38,359.2 139.38,513.2 	"/>
	<polygon class="st1" points="139.38,513.2 116.38,450.2 337.38,417.2 	"/>
	<polygon class="st1" points="246.38,377.2 555.38,637.2 236.68,432.24 	"/>
	<polygon class="st1" points="378.88,98.2 246.38,377.2 474.38,377.2 	"/>
	<polygon class="st1" points="177.38,76.2 170.38,319.2 378.88,98.2 	"/>
	<polygon class="st1" points="177.38,76.2 366.8,18.2 378.88,98.2 	"/>
	<polygon class="st1" points="496.38,175.2 170.38,319.2 1.38,180.2 	"/>
	<polygon class="st1" points="337.38,417.2 17.38,148.2 274.63,170.2 	"/>
	<polygon class="st1" points="1.38,180.2 116.38,450.2 337.38,417.2 	"/>
</g>
<g>
	<path class="st3" d="M991.68,902.65c0-3.25,2.63-5.88,5.88-5.88c3.25,0,5.88,2.63,5.88,5.88c0,3.25-2.63,5.88-5.88,5.88
		C994.31,908.53,991.68,905.9,991.68,902.65z"/>
	<path class="st3" d="M1278.2,855.01c0-4.44,3.6-8.04,8.04-8.04c4.44,0,8.04,3.6,8.04,8.04c0,4.44-3.6,8.04-8.04,8.04
		C1281.8,863.05,1278.2,859.45,1278.2,855.01z"/>
	<circle class="st3" cx="1190.98" cy="854.26" r="6.21"/>
	<path class="st3" d="M1212.54,823.51c0-3.43,2.78-6.21,6.21-6.21c3.43,0,6.21,2.78,6.21,6.21c0,3.43-2.78,6.21-6.21,6.21
		C1215.32,829.72,1212.54,826.94,1212.54,823.51z"/>
	<circle class="st3" cx="1237.57" cy="863.65" r="9.83"/>
	<path class="st3" d="M1134.34,1019.98c0-3.25,2.63-5.88,5.88-5.88s5.88,2.63,5.88,5.88c0,3.25-2.63,5.88-5.88,5.88
		S1134.34,1023.23,1134.34,1019.98z"/>
	<path class="st3" d="M1360.98,1080.9c0-2.84,2.3-5.14,5.14-5.14s5.14,2.3,5.14,5.14s-2.3,5.14-5.14,5.14
		S1360.98,1083.74,1360.98,1080.9z"/>
	
		<ellipse transform="matrix(0.7071 -0.7071 0.7071 0.7071 -130.0812 1454.4978)" class="st3" cx="1690.69" cy="884.27" rx="7.71" ry="7.71"/>
	<path class="st3" d="M1212.29,745.65c0-3.57,2.89-6.46,6.46-6.46c3.57,0,6.46,2.89,6.46,6.46c0,3.57-2.89,6.46-6.46,6.46
		C1215.18,752.1,1212.29,749.21,1212.29,745.65z"/>
	<path class="st3" d="M1602.27,823.51c0-3.57,2.89-6.46,6.46-6.46s6.46,2.89,6.46,6.46s-2.89,6.46-6.46,6.46
		S1602.27,827.08,1602.27,823.51z"/>
	<path class="st3" d="M1437.78,767.39c0-4.05,3.28-7.33,7.33-7.33s7.33,3.28,7.33,7.33c0,4.05-3.28,7.33-7.33,7.33
		S1437.78,771.44,1437.78,767.39z"/>
	<circle class="st3" cx="1378.11" cy="779.98" r="7.33"/>
	<circle class="st3" cx="1283.66" cy="602.65" r="7.33"/>
	<circle class="st3" cx="1392.98" cy="634.15" r="7.33"/>
	<circle class="st3" cx="1391.6" cy="718.52" r="8.71"/>
	<circle class="st3" cx="1467.3" cy="855.01" r="8.96"/>
	<path class="st3" d="M936.82,713.43c0-5.08,4.12-9.21,9.21-9.21c5.08,0,9.21,4.12,9.21,9.21c0,5.09-4.12,9.21-9.21,9.21
		C940.94,722.64,936.82,718.52,936.82,713.43z"/>
	<path class="st3" d="M1119.91,619.65c0-5.08,4.12-9.21,9.21-9.21s9.21,4.12,9.21,9.21c0,5.08-4.12,9.21-9.21,9.21
		S1119.91,624.73,1119.91,619.65z"/>
	<path class="st3" d="M978.52,465.9c0-6.6,5.35-11.96,11.96-11.96c6.6,0,11.96,5.35,11.96,11.96s-5.35,11.96-11.96,11.96
		C983.87,477.85,978.52,472.5,978.52,465.9z"/>
	<path class="st3" d="M1037.89,359.65c0-3.5,2.83-6.33,6.33-6.33c3.5,0,6.33,2.84,6.33,6.33c0,3.5-2.83,6.33-6.33,6.33
		C1040.73,365.98,1037.89,363.14,1037.89,359.65z"/>
	<path class="st3" d="M1088.64,301.65c0-2.53,2.05-4.58,4.58-4.58s4.58,2.05,4.58,4.58s-2.05,4.58-4.58,4.58
		S1088.64,304.18,1088.64,301.65z"/>
	<path class="st3" d="M936.64,340.9c0-2.94,2.39-5.33,5.33-5.33c2.94,0,5.33,2.39,5.33,5.33c0,2.94-2.39,5.33-5.33,5.33
		C939.03,346.23,936.64,343.84,936.64,340.9z"/>
	<path class="st3" d="M846.39,443.65c0-3.77,3.06-6.83,6.83-6.83s6.83,3.06,6.83,6.83c0,3.77-3.06,6.83-6.83,6.83
		S846.39,447.42,846.39,443.65z"/>
	<path class="st3" d="M809.39,359.65c0-3.77,3.06-6.83,6.83-6.83s6.83,3.06,6.83,6.83c0,3.77-3.06,6.83-6.83,6.83
		S809.39,363.42,809.39,359.65z"/>
	<path class="st3" d="M941.89,80.65c0-3.77,3.06-6.83,6.83-6.83s6.83,3.06,6.83,6.83c0,3.77-3.06,6.83-6.83,6.83
		S941.89,84.42,941.89,80.65z"/>
	<path class="st3" d="M734.96,55.72c0-5.39,4.37-9.76,9.76-9.76c5.39,0,9.76,4.37,9.76,9.76c0,5.39-4.37,9.76-9.76,9.76
		C739.34,65.48,734.96,61.11,734.96,55.72z"/>
	<path class="st3" d="M577.46,130.65c0-5.39,4.37-9.76,9.76-9.76c5.39,0,9.76,4.37,9.76,9.76c0,5.39-4.37,9.76-9.76,9.76
		C581.84,140.41,577.46,136.04,577.46,130.65z"/>
	<path class="st3" d="M831.71,151.15c0-6.22,5.04-11.26,11.26-11.26c6.22,0,11.26,5.04,11.26,11.26c0,6.22-5.04,11.26-11.26,11.26
		C836.76,162.41,831.71,157.37,831.71,151.15z"/>
	<path class="st3" d="M1059.39,157.65c0-3.77,3.06-6.83,6.83-6.83s6.83,3.06,6.83,6.83c0,3.77-3.06,6.83-6.83,6.83
		S1059.39,161.42,1059.39,157.65z"/>
	<path class="st3" d="M797.63,413.65c0-4.34,3.52-7.86,7.86-7.86c4.34,0,7.86,3.52,7.86,7.86c0,4.34-3.52,7.87-7.86,7.87
		C801.15,421.51,797.63,417.99,797.63,413.65z"/>
	<path class="st3" d="M1226.85,407.46c0-4.71,3.82-8.52,8.53-8.52c4.71,0,8.52,3.82,8.52,8.52s-3.82,8.52-8.52,8.52
		C1230.67,415.98,1226.85,412.16,1226.85,407.46z"/>
	<path class="st3" d="M1087.35,628.65c0-2.69,2.18-4.87,4.87-4.87s4.87,2.18,4.87,4.87c0,2.69-2.18,4.87-4.87,4.87
		S1087.35,631.34,1087.35,628.65z"/>
	<path class="st3" d="M1031.85,661.15c0-2.69,2.18-4.87,4.87-4.87s4.87,2.18,4.87,4.87c0,2.69-2.18,4.87-4.87,4.87
		S1031.85,663.84,1031.85,661.15z"/>
	<path class="st3" d="M732.77,301.65c0-3.92,3.34-7.1,7.46-7.1s7.46,3.18,7.46,7.1s-3.34,7.1-7.46,7.1S732.77,305.57,732.77,301.65z
		"/>
</g>
<g class="st0">
	<path class="st3" d="M1076.55,333.21c-0.53,3.21-3.56,5.37-6.76,4.84c-3.21-0.53-5.37-3.56-4.84-6.76
		c0.53-3.21,3.56-5.38,6.77-4.84C1074.92,326.98,1077.08,330.01,1076.55,333.21z"/>
	<path class="st3" d="M786.09,333.45c-0.72,4.38-4.86,7.34-9.24,6.62c-4.38-0.72-7.35-4.86-6.62-9.25c0.72-4.38,4.86-7.35,9.25-6.62
		C783.85,324.93,786.82,329.07,786.09,333.45z"/>
	<path class="st3" d="M878.15,349.44c-0.56,3.38-3.75,5.67-7.14,5.11c-3.38-0.56-5.67-3.75-5.11-7.14c0.56-3.38,3.75-5.67,7.14-5.11
		C876.42,342.86,878.71,346.05,878.15,349.44z"/>
	<path class="st3" d="M845.73,375.24c-0.56,3.38-3.75,5.67-7.14,5.11c-3.38-0.56-5.67-3.75-5.11-7.14c0.56-3.38,3.75-5.67,7.14-5.11
		C844.01,368.66,846.29,371.86,845.73,375.24z"/>
	<path class="st3" d="M837.29,333.16c-0.88,5.36-5.95,8.98-11.3,8.09c-5.36-0.89-8.98-5.95-8.1-11.3c0.89-5.36,5.95-8.98,11.31-8.1
		C834.55,322.74,838.18,327.81,837.29,333.16z"/>
	<path class="st3" d="M954.95,194.17c-0.53,3.21-3.56,5.37-6.76,4.84c-3.21-0.53-5.38-3.56-4.84-6.76c0.53-3.21,3.56-5.38,6.76-4.84
		C953.31,187.93,955.48,190.96,954.95,194.17z"/>
	<path class="st3" d="M741.3,97.08c-0.46,2.8-3.11,4.69-5.91,4.23c-2.8-0.46-4.69-3.11-4.23-5.91c0.46-2.8,3.11-4.69,5.91-4.23
		S741.76,94.28,741.3,97.08z"/>
	<path class="st3" d="M391.51,238.51c-0.69,4.2-4.66,7.04-8.86,6.34c-4.2-0.7-7.04-4.66-6.35-8.86c0.69-4.2,4.66-7.04,8.86-6.35
		C389.37,230.35,392.21,234.31,391.51,238.51z"/>
	<path class="st3" d="M833.27,452.1c-0.58,3.52-3.91,5.9-7.42,5.32c-3.52-0.58-5.9-3.91-5.32-7.42c0.58-3.52,3.91-5.9,7.42-5.32
		C831.47,445.26,833.85,448.58,833.27,452.1z"/>
	<path class="st3" d="M461.23,311.63c-0.58,3.52-3.91,5.9-7.42,5.32c-3.52-0.58-5.9-3.91-5.32-7.42c0.58-3.52,3.91-5.9,7.42-5.32
		C459.43,304.79,461.81,308.11,461.23,311.63z"/>
	<path class="st3" d="M614.36,393.85c-0.66,3.99-4.44,6.7-8.43,6.04c-3.99-0.66-6.7-4.44-6.04-8.43c0.66-4,4.44-6.7,8.43-6.04
		C612.31,386.08,615.02,389.85,614.36,393.85z"/>
	<path class="st3" d="M682.51,392.36c-0.66,3.99-4.44,6.7-8.43,6.04c-3.99-0.66-6.7-4.44-6.04-8.43c0.66-4,4.44-6.7,8.43-6.04
		C680.47,384.59,683.17,388.36,682.51,392.36z"/>
	<path class="st3" d="M746.75,582.73c-0.66,4-4.44,6.7-8.43,6.04c-4-0.66-6.7-4.43-6.04-8.43c0.66-4,4.44-6.7,8.43-6.04
		C744.71,574.96,747.41,578.74,746.75,582.73z"/>
	<path class="st3" d="M644.05,533.81c-0.66,3.99-4.44,6.7-8.43,6.04c-3.99-0.66-6.7-4.44-6.04-8.43c0.66-4,4.44-6.7,8.43-6.04
		C642,526.04,644.71,529.82,644.05,533.81z"/>
	<path class="st3" d="M660.53,451.02c-0.78,4.74-5.27,7.95-10.01,7.17c-4.74-0.78-7.95-5.27-7.17-10.01
		c0.78-4.75,5.27-7.96,10.01-7.17C658.1,441.79,661.31,446.27,660.53,451.02z"/>
	<path class="st3" d="M608.36,304.04c-0.81,4.88-5.42,8.18-10.3,7.37c-4.88-0.81-8.18-5.42-7.38-10.3c0.81-4.88,5.42-8.18,10.3-7.38
		C605.87,294.55,609.17,299.16,608.36,304.04z"/>
	<path class="st3" d="M1099.79,528.85c-0.83,5.02-5.57,8.41-10.59,7.58c-5.02-0.83-8.41-5.57-7.58-10.58
		c0.83-5.02,5.57-8.41,10.59-7.58C1097.23,519.09,1100.62,523.83,1099.79,528.85z"/>
	<path class="st3" d="M846.51,634.3c-0.83,5.02-5.57,8.41-10.59,7.58c-5.02-0.83-8.41-5.57-7.58-10.59
		c0.83-5.02,5.57-8.41,10.59-7.58C843.95,624.55,847.34,629.29,846.51,634.3z"/>
	<path class="st3" d="M1018.25,766.26c-1.08,6.51-7.23,10.92-13.75,9.84c-6.51-1.08-10.92-7.23-9.84-13.75
		c1.08-6.52,7.23-10.92,13.75-9.85C1014.92,753.59,1019.33,759.74,1018.25,766.26z"/>
	<path class="st3" d="M942.33,861.39c-0.57,3.45-3.83,5.78-7.28,5.21c-3.45-0.57-5.78-3.83-5.21-7.28c0.57-3.45,3.83-5.78,7.28-5.21
		C940.57,854.68,942.9,857.94,942.33,861.39z"/>
	<path class="st3" d="M882.79,910.33c-0.41,2.49-2.77,4.18-5.27,3.77c-2.5-0.41-4.18-2.77-3.77-5.27c0.41-2.5,2.77-4.19,5.27-3.77
		C881.52,905.47,883.21,907.83,882.79,910.33z"/>
	<path class="st3" d="M1039.16,896.41c-0.48,2.9-3.23,4.87-6.13,4.39c-2.9-0.48-4.87-3.22-4.39-6.13s3.22-4.87,6.13-4.39
		C1037.68,890.77,1039.64,893.51,1039.16,896.41z"/>
	<path class="st3" d="M1144.97,809.77c-0.62,3.72-4.13,6.24-7.85,5.62c-3.72-0.62-6.24-4.13-5.62-7.85
		c0.62-3.72,4.13-6.24,7.85-5.62C1143.07,802.53,1145.59,806.05,1144.97,809.77z"/>
	<path class="st3" d="M1167.76,898.68c-0.62,3.72-4.13,6.24-7.85,5.62c-3.72-0.62-6.24-4.13-5.62-7.85
		c0.62-3.72,4.13-6.24,7.85-5.62C1165.86,891.44,1168.38,894.96,1167.76,898.68z"/>
	<path class="st3" d="M1067.15,848.26c-0.71,4.29-4.76,7.18-9.04,6.47c-4.28-0.71-7.18-4.76-6.47-9.04
		c0.71-4.29,4.76-7.19,9.04-6.48C1064.96,839.92,1067.86,843.97,1067.15,848.26z"/>
	<path class="st3" d="M763.71,783.38c-0.77,4.64-5.16,7.79-9.8,7.02c-4.64-0.77-7.79-5.16-7.02-9.8c0.77-4.64,5.16-7.79,9.8-7.02
		C761.33,774.35,764.48,778.74,763.71,783.38z"/>
	<path class="st3" d="M937.44,587.92c-0.44,2.65-2.95,4.45-5.6,4.01c-2.65-0.44-4.45-2.95-4.01-5.6c0.44-2.66,2.95-4.45,5.6-4.01
		C936.08,582.76,937.88,585.27,937.44,587.92z"/>
	<path class="st3" d="M997.5,564.92c-0.44,2.66-2.95,4.45-5.6,4.01c-2.66-0.44-4.45-2.95-4.01-5.6c0.44-2.66,2.95-4.45,5.6-4.01
		C996.14,559.75,997.94,562.26,997.5,564.92z"/>
	<path class="st3" d="M1233.9,968.41c-0.64,3.87-4.45,6.46-8.52,5.79c-4.06-0.67-6.84-4.35-6.2-8.22c0.64-3.87,4.45-6.46,8.51-5.79
		C1231.76,960.86,1234.54,964.54,1233.9,968.41z"/>
</g>
<g>
	<g>
		<circle class="st4" cx="1188.89" cy="995.32" r="10.22"/>
		<path class="st3" d="M1188.89,988.82c3.58,0,6.5,2.91,6.5,6.5c0,3.58-2.91,6.49-6.5,6.49c-3.58,0-6.5-2.91-6.5-6.49
			C1182.4,991.73,1185.31,988.82,1188.89,988.82z"/>
	</g>
	<g>
		<circle class="st4" cx="1118.89" cy="855.01" r="10.22"/>
		<path class="st3" d="M1118.89,848.52c3.58,0,6.5,2.91,6.5,6.49c0,3.58-2.91,6.5-6.5,6.5c-3.58,0-6.5-2.91-6.5-6.5
			C1112.4,851.43,1115.31,848.52,1118.89,848.52z"/>
	</g>
	<g>
		<path class="st5" d="M1123.15,1038.52c0-3.99,3.23-7.22,7.22-7.22c3.99,0,7.22,3.23,7.22,7.22c0,3.99-3.23,7.22-7.22,7.22
			C1126.39,1045.74,1123.15,1042.51,1123.15,1038.52z"/>
		<path class="st3" d="M1130.37,1033.93c2.53,0,4.59,2.06,4.59,4.59c0,2.53-2.06,4.59-4.59,4.59c-2.53,0-4.59-2.06-4.59-4.59
			C1125.79,1035.99,1127.84,1033.93,1130.37,1033.93z"/>
	</g>
	<g>
		<circle class="st4" cx="1563.23" cy="689.87" r="10.22"/>
		<path class="st3" d="M1563.23,683.38c3.58,0,6.49,2.91,6.49,6.49c0,3.58-2.91,6.5-6.49,6.5c-3.58,0-6.5-2.91-6.5-6.5
			C1556.73,686.29,1559.64,683.38,1563.23,683.38z"/>
	</g>
	<g>
		<path class="st6" d="M1260.01,637.98c0-4.51,3.65-8.16,8.16-8.16c4.51,0,8.16,3.65,8.16,8.16c0,4.51-3.65,8.16-8.16,8.16
			C1263.66,646.14,1260.01,642.49,1260.01,637.98z"/>
		<path class="st3" d="M1268.17,632.8c2.86,0,5.18,2.33,5.18,5.18c0,2.86-2.33,5.18-5.18,5.18c-2.86,0-5.18-2.32-5.18-5.18
			C1262.99,635.12,1265.31,632.8,1268.17,632.8z"/>
	</g>
	<g>
		
			<ellipse transform="matrix(0.7071 -0.7071 0.7071 0.7071 -153.7978 812.491)" class="st7" cx="903.86" cy="591.9" rx="7.71" ry="7.71"/>
		<path class="st3" d="M903.86,587c2.7,0,4.9,2.2,4.9,4.9c0,2.7-2.2,4.9-4.9,4.9c-2.7,0-4.9-2.2-4.9-4.9
			C898.97,589.19,901.16,587,903.86,587z"/>
	</g>
	<g>
		<path class="st8" d="M670.73,428.98c0-6.53,5.3-11.83,11.83-11.83c6.53,0,11.83,5.29,11.83,11.83c0,6.53-5.29,11.83-11.83,11.83
			C676.03,440.81,670.73,435.51,670.73,428.98z"/>
		<path class="st3" d="M682.56,421.47c4.14,0,7.51,3.37,7.51,7.51c0,4.14-3.37,7.51-7.51,7.51c-4.14,0-7.51-3.37-7.51-7.51
			C675.05,424.84,678.42,421.47,682.56,421.47z"/>
	</g>
	<g>
		<circle class="st9" cx="907.23" cy="399.65" r="9.31"/>
		<path class="st3" d="M907.23,393.73c3.26,0,5.91,2.65,5.91,5.92c0,3.26-2.65,5.92-5.91,5.92s-5.92-2.65-5.92-5.92
			C901.31,396.39,903.96,393.73,907.23,393.73z"/>
	</g>
	<g>
		<path class="st10" d="M561.81,162.41c0-5.2,4.21-9.41,9.41-9.41c5.2,0,9.41,4.21,9.41,9.41c0,5.2-4.21,9.41-9.41,9.41
			C566.03,171.82,561.81,167.61,561.81,162.41z"/>
		<path class="st3" d="M571.22,156.43c3.3,0,5.98,2.68,5.98,5.98c0,3.3-2.68,5.98-5.98,5.98c-3.3,0-5.98-2.68-5.98-5.98
			C565.25,159.11,567.93,156.43,571.22,156.43z"/>
	</g>
</g>
<rect x="273.66" y="46.65" class="st11" width="1744.89" height="1000"/>
</svg>
