<svg id="圖層_1" data-name="圖層 1" xmlns="http://www.w3.org/2000/svg" viewBox="0 0 250 250"><defs><style>.cls-1,.cls-2{fill:none;stroke:#333;stroke-miterlimit:10;stroke-width:5px;}.cls-2{stroke-linecap:round;}</style></defs><title>icon</title><rect class="cls-1" x="60.6" y="19.9" width="128.1" height="198.63" rx="6.4"/><line class="cls-1" x1="61.2" y1="142.9" x2="189.4" y2="142.9"/><line class="cls-1" x1="126" y1="19.3" x2="126" y2="143.6"/><line class="cls-2" x1="133.6" y1="71.2" x2="133.6" y2="90.4"/><line class="cls-2" x1="117" y1="71.2" x2="117" y2="90.4"/><path class="cls-2" d="M79.2,220.5H68.9a2.5,2.5,0,0,0-2.5,2.5v5.2a2.5,2.5,0,0,0,2.5,2.5h3.9l8.7-11.3C81.1,218.5,80.2,220.5,79.2,220.5Z"/><path class="cls-2" d="M170.2,220.5h10.2A2.6,2.6,0,0,1,183,223v5.2a2.6,2.6,0,0,1-2.6,2.5h-3.8l-8.8-11.3C168.2,218.5,169.1,220.5,170.2,220.5Z"/><rect class="cls-1" x="111.5" y="151.9" width="27.6" height="5.77" rx="2.8"/></svg>