<svg id="圖層_1" data-name="圖層 1" xmlns="http://www.w3.org/2000/svg" viewBox="0 0 250 250"><defs><style>.cls-1,.cls-2,.cls-3{fill:none;stroke-miterlimit:10;stroke-width:5px;}.cls-1,.cls-3{stroke:#333;}.cls-2{stroke:#000;}.cls-3{stroke-linecap:round;}</style></defs><title>icon</title><rect class="cls-1" x="3.8" y="26.6" width="242.4" height="116.07" rx="7.3"/><rect class="cls-2" x="29.5" y="104.4" width="191" height="38.2"/><line class="cls-1" x1="29.5" y1="122.8" x2="220.5" y2="122.8"/><circle class="cls-1" cx="212.4" cy="59.6" r="8.1"/><path class="cls-3" d="M119.9,152.9v49.3c0,11.7-6.5,21.2-14.4,21.2h0"/><path class="cls-3" d="M150.7,152.9V195c0,10,7.6,18.2,16.9,18.2h0c9.3,0,16.9-8.2,16.9-18.2"/><path class="cls-3" d="M91.9,152.9v36c0,8.5-5.9,15.4-13.2,15.4h0c-7.3,0-13.2-6.9-13.2-15.4"/><line class="cls-3" x1="106.6" y1="152.9" x2="106.6" y2="182.3"/><line class="cls-3" x1="131.6" y1="152.9" x2="131.6" y2="204.3"/></svg>