<svg id="圖層_1" data-name="圖層 1" xmlns="http://www.w3.org/2000/svg" xmlns:xlink="http://www.w3.org/1999/xlink" viewBox="0 0 250 250"><defs><style>.cls-1,.cls-2,.cls-3,.cls-4{fill:none;}.cls-2{stroke:#333;}.cls-2,.cls-3,.cls-4{stroke-miterlimit:10;stroke-width:5px;}.cls-3{stroke:#0c0d00;}.cls-4{stroke:#000;}.cls-5{clip-path:url(#clip-path);}.cls-6{clip-path:url(#clip-path-2);}.cls-7{clip-path:url(#clip-path-3);}</style><clipPath id="clip-path"><circle class="cls-1" cx="78.2" cy="121.3" r="16.2"/></clipPath><clipPath id="clip-path-2"><circle class="cls-1" cx="95.9" cy="121.3" r="16.2"/></clipPath><clipPath id="clip-path-3"><circle class="cls-1" cx="113.6" cy="121.3" r="16.2"/></clipPath></defs><title>icon</title><circle class="cls-2" cx="216.5" cy="81.5" r="10.3"/><circle class="cls-2" cx="216.5" cy="118.3" r="10.3"/><rect class="cls-3" x="5.5" y="49.1" width="239" height="151.92" rx="3.2"/><line class="cls-4" x1="189.2" y1="49" x2="189.2" y2="200.9"/><rect class="cls-2" x="21" y="73.4" width="155.6" height="103.25" rx="4.9"/><g class="cls-5"><path class="cls-2" d="M80.7,94.9c0,5.9-4,5.9-4,11.8s4,5.9,4,11.8-4,5.8-4,11.7,4,5.9,4,11.8"/></g><g class="cls-6"><path class="cls-2" d="M98.4,94.9c0,5.9-4,5.9-4,11.8s4,5.9,4,11.8-4,5.8-4,11.7,4,5.9,4,11.8"/></g><g class="cls-7"><path class="cls-2" d="M116.1,94.9c0,5.9-4,5.9-4,11.8s4,5.9,4,11.8-4,5.8-4,11.7,4,5.9,4,11.8"/></g><path class="cls-2" d="M98.8,176.6c19.6,0,35.4-14.2,35.4-31.7H63.4C63.4,162.4,79.3,176.6,98.8,176.6Z"/></svg>