<svg id="圖層_1" data-name="圖層 1" xmlns="http://www.w3.org/2000/svg" viewBox="0 0 250 250"><defs><style>.cls-1,.cls-2,.cls-3{fill:none;stroke:#333;stroke-width:5px;}.cls-1,.cls-3{stroke-linecap:round;}.cls-1,.cls-2{stroke-miterlimit:10;}.cls-3{stroke-linejoin:round;}</style></defs><title>icon</title><path class="cls-1" d="M96.4,175.5h-79a6.4,6.4,0,0,1-6.4-6.4V80.9a6.4,6.4,0,0,1,6.4-6.4H101"/><path class="cls-1" d="M134,74.5h81.4a6.4,6.4,0,0,1,6.4,6.4v88.2a6.4,6.4,0,0,1-6.4,6.4H127.6"/><polygon class="cls-2" points="239 144.8 222.4 147.4 222.4 102.6 239 105.2 239 144.8"/><polygon class="cls-3" points="154.1 121.2 118.5 114.2 131.8 46.3 78.7 128.8 114.3 135.8 100.9 203.7 154.1 121.2"/></svg>