<svg id="圖層_1" data-name="圖層 1" xmlns="http://www.w3.org/2000/svg" viewBox="0 0 97 37"><defs><style>.cls-1{fill:#222;}.cls-2{fill:#fff;}</style></defs><rect class="cls-1" width="97" height="37"/><path class="cls-2" d="M27,22.17H25.44l-1.35-3.52H18.78l-1.26,3.52H16L20.77,9.78h1.39ZM23.63,17.4l-2-5.35a6.56,6.56,0,0,1-.18-.82h0a4.24,4.24,0,0,1-.2.82l-2,5.35Z" transform="translate(1 1)"/><path class="cls-2" d="M37.35,10,30,20.93h7.14v1.24H28v-.32L35.2,11H28.53V9.78h8.82Z" transform="translate(1 1)"/><path class="cls-2" d="M46.21,22.17h-7V21h2.82V11.23l-2.89.88V10.82L43.4,9.5V21h2.81Z" transform="translate(1 1)"/><path class="cls-2" d="M48.34,20.24a4.53,4.53,0,0,0,2.87,1,3.21,3.21,0,0,0,2.08-.65,2.16,2.16,0,0,0,.81-1.79c0-1.65-1.17-2.48-3.5-2.48h-1V15.19h1c2.07,0,3.11-.78,3.11-2.32s-.79-2.16-2.37-2.16a3.89,3.89,0,0,0-2.47.91V10.28a5.41,5.41,0,0,1,2.81-.71,3.64,3.64,0,0,1,2.43.81,2.64,2.64,0,0,1,1,2.14,3.07,3.07,0,0,1-2.49,3.16v0a3.18,3.18,0,0,1,2.12.93,2.76,2.76,0,0,1,.81,2,3.33,3.33,0,0,1-1.22,2.7,4.72,4.72,0,0,1-3.12,1,5.19,5.19,0,0,1-2.79-.66Z" transform="translate(1 1)"/><path class="cls-2" d="M65.62,18.84H64v3.33H62.69V18.84H56.83V18l5.54-8.18H64v8h1.6Zm-2.93-1.1V12.28q0-.57,0-1.29h0c0,.12-.2.44-.47,1l-3.9,5.79Z" transform="translate(1 1)"/><path class="cls-2" d="M79,25.33a4.06,4.06,0,0,1-1.3.17,4.63,4.63,0,0,1-2.09-.5,12.11,12.11,0,0,1-2.84-2.62,5.19,5.19,0,0,1-4.14-1.78,6.56,6.56,0,0,1-1.58-4.48,6.84,6.84,0,0,1,1.61-4.78,5.7,5.7,0,0,1,4.43-1.77,5.24,5.24,0,0,1,4.09,1.74,6.49,6.49,0,0,1,1.56,4.5,7.43,7.43,0,0,1-1.14,4.24,5,5,0,0,1-3.22,2.14,9.15,9.15,0,0,0,1.82,1.62,3.17,3.17,0,0,0,1.55.4A3.11,3.11,0,0,0,79,24ZM68.48,16a5.58,5.58,0,0,0,1.21,3.73,3.94,3.94,0,0,0,3.15,1.42,4.16,4.16,0,0,0,3.28-1.35A5.5,5.5,0,0,0,77.32,16a5.73,5.73,0,0,0-1.17-3.85A4,4,0,0,0,73,10.82a4,4,0,0,0-3.22,1.43A5.5,5.5,0,0,0,68.48,16Z" transform="translate(1 1)"/></svg>