<?xml version="1.0" encoding="utf-8"?>
<svg version="1.1" xmlns:xlink="http://www.w3.org/1999/xlink" width="10px" height="10px" xmlns="http://www.w3.org/2000/svg">
  <g transform="matrix(1 0 0 1 -5 -23 )">
    <path d="M 5.92132505175984 8.93787575150301  C 5.99033816425121 9.00467601870407  6.02484472049689 9.0814963259853  6.02484472049689 9.16833667334669  C 6.02484472049689 9.25517702070808  5.99033816425121 9.33199732798931  5.92132505175984 9.39879759519038  L 5.40372670807453 9.8997995991984  C 5.33471359558316 9.96659986639947  5.25534851621808 10  5.1656314699793 10  C 5.07591442374051 10  4.99654934437543 9.96659986639947  4.92753623188406 9.8997995991984  L 0.10351966873706 5.23046092184369  C 0.0345065562456867 5.16366065464262  0 5.08684034736139  0 5  C 0 4.91315965263861  0.0345065562456867 4.83633934535738  0.10351966873706 4.76953907815631  L 4.92753623188406 0.100200400801603  C 4.99654934437543 0.0334001336005341  5.07591442374051 0  5.1656314699793 0  C 5.25534851621808 0  5.33471359558316 0.0334001336005341  5.40372670807453 0.100200400801603  L 5.92132505175984 0.601202404809619  C 5.99033816425121 0.668002672010687  6.02484472049689 0.744822979291916  6.02484472049689 0.831663326653307  C 6.02484472049689 0.918503674014696  5.99033816425121 0.995323981295925  5.92132505175984 1.06212424849699  L 1.85300207039337 5  L 5.92132505175984 8.93787575150301  Z M 9.89648033126294 8.93787575150301  C 9.96549344375431 9.00467601870407  10 9.0814963259853  10 9.16833667334669  C 10 9.25517702070808  9.96549344375431 9.33199732798931  9.89648033126294 9.39879759519038  L 9.37888198757764 9.8997995991984  C 9.30986887508627 9.96659986639947  9.23050379572119 10  9.1407867494824 10  C 9.05106970324362 10  8.97170462387854 9.96659986639947  8.90269151138716 9.8997995991984  L 4.07867494824017 5.23046092184369  C 4.00966183574879 5.16366065464262  3.97515527950311 5.08684034736139  3.97515527950311 5  C 3.97515527950311 4.91315965263861  4.00966183574879 4.83633934535738  4.07867494824017 4.76953907815631  L 8.90269151138716 0.100200400801603  C 8.97170462387854 0.0334001336005341  9.05106970324362 0  9.1407867494824 0  C 9.23050379572119 0  9.30986887508627 0.0334001336005341  9.37888198757764 0.100200400801603  L 9.89648033126294 0.601202404809619  C 9.96549344375431 0.668002672010687  10 0.744822979291916  10 0.831663326653307  C 10 0.918503674014696  9.96549344375431 0.995323981295925  9.89648033126294 1.06212424849699  L 5.82815734989648 5  L 9.89648033126294 8.93787575150301  Z " fill-rule="nonzero" fill="#000000" stroke="none" transform="matrix(1 0 0 1 5 23 )" />
  </g>
</svg>