<?xml version="1.0" encoding="utf-8"?>
<svg version="1.1" xmlns:xlink="http://www.w3.org/1999/xlink" width="18px" height="20px" xmlns="http://www.w3.org/2000/svg">
  <g transform="matrix(1 0 0 1 -185 -204 )">
    <path d="M 3.74819711538462 18.1529017857143  C 4.01862980769231 17.8738839285714  4.15384615384615 17.5372023809524  4.15384615384615 17.1428571428571  C 4.15384615384615 16.7485119047619  4.01862980769231 16.4118303571429  3.74819711538462 16.1328125  C 3.47776442307692 15.8537946428571  3.15144230769231 15.7142857142857  2.76923076923077 15.7142857142857  C 2.38701923076923 15.7142857142857  2.06069711538462 15.8537946428571  1.79026442307692 16.1328125  C 1.51983173076923 16.4118303571429  1.38461538461538 16.7485119047619  1.38461538461538 17.1428571428571  C 1.38461538461538 17.5372023809524  1.51983173076923 17.8738839285714  1.79026442307692 18.1529017857143  C 2.06069711538462 18.4319196428571  2.38701923076923 18.5714285714286  2.76923076923077 18.5714285714286  C 3.15144230769231 18.5714285714286  3.47776442307692 18.4319196428571  3.74819711538462 18.1529017857143  Z M 7.90204326923077 18.1529017857143  C 8.17247596153846 17.8738839285714  8.30769230769231 17.5372023809524  8.30769230769231 17.1428571428571  C 8.30769230769231 16.7485119047619  8.17247596153846 16.4118303571429  7.90204326923077 16.1328125  C 7.63161057692308 15.8537946428571  7.30528846153846 15.7142857142857  6.92307692307692 15.7142857142857  C 6.54086538461539 15.7142857142857  6.21454326923077 15.8537946428571  5.94411057692308 16.1328125  C 5.67367788461539 16.4118303571429  5.53846153846154 16.7485119047619  5.53846153846154 17.1428571428571  C 5.53846153846154 17.5372023809524  5.67367788461539 17.8738839285714  5.94411057692308 18.1529017857143  C 6.21454326923077 18.4319196428571  6.54086538461539 18.5714285714286  6.92307692307692 18.5714285714286  C 7.30528846153846 18.5714285714286  7.63161057692308 18.4319196428571  7.90204326923077 18.1529017857143  Z M 3.74819711538462 13.8671875  C 4.01862980769231 13.5881696428571  4.15384615384615 13.2514880952381  4.15384615384615 12.8571428571429  C 4.15384615384615 12.4627976190476  4.01862980769231 12.1261160714286  3.74819711538462 11.8470982142857  C 3.47776442307692 11.5680803571429  3.15144230769231 11.4285714285714  2.76923076923077 11.4285714285714  C 2.38701923076923 11.4285714285714  2.06069711538462 11.5680803571429  1.79026442307692 11.8470982142857  C 1.51983173076923 12.1261160714286  1.38461538461538 12.4627976190476  1.38461538461538 12.8571428571429  C 1.38461538461538 13.2514880952381  1.51983173076923 13.5881696428571  1.79026442307692 13.8671875  C 2.06069711538462 14.1462053571429  2.38701923076923 14.2857142857143  2.76923076923077 14.2857142857143  C 3.15144230769231 14.2857142857143  3.47776442307692 14.1462053571429  3.74819711538462 13.8671875  Z M 12.0558894230769 18.1529017857143  C 12.3263221153846 17.8738839285714  12.4615384615385 17.5372023809524  12.4615384615385 17.1428571428571  C 12.4615384615385 16.7485119047619  12.3263221153846 16.4118303571429  12.0558894230769 16.1328125  C 11.7854567307692 15.8537946428571  11.4591346153846 15.7142857142857  11.0769230769231 15.7142857142857  C 10.6947115384615 15.7142857142857  10.3683894230769 15.8537946428571  10.0979567307692 16.1328125  C 9.82752403846154 16.4118303571429  9.69230769230769 16.7485119047619  9.69230769230769 17.1428571428571  C 9.69230769230769 17.5372023809524  9.82752403846154 17.8738839285714  10.0979567307692 18.1529017857143  C 10.3683894230769 18.4319196428571  10.6947115384615 18.5714285714286  11.0769230769231 18.5714285714286  C 11.4591346153846 18.5714285714286  11.7854567307692 18.4319196428571  12.0558894230769 18.1529017857143  Z M 7.90204326923077 13.8671875  C 8.17247596153846 13.5881696428571  8.30769230769231 13.2514880952381  8.30769230769231 12.8571428571429  C 8.30769230769231 12.4627976190476  8.17247596153846 12.1261160714286  7.90204326923077 11.8470982142857  C 7.63161057692308 11.5680803571429  7.30528846153846 11.4285714285714  6.92307692307692 11.4285714285714  C 6.54086538461539 11.4285714285714  6.21454326923077 11.5680803571429  5.94411057692308 11.8470982142857  C 5.67367788461539 12.1261160714286  5.53846153846154 12.4627976190476  5.53846153846154 12.8571428571429  C 5.53846153846154 13.2514880952381  5.67367788461539 13.5881696428571  5.94411057692308 13.8671875  C 6.21454326923077 14.1462053571429  6.54086538461539 14.2857142857143  6.92307692307692 14.2857142857143  C 7.30528846153846 14.2857142857143  7.63161057692308 14.1462053571429  7.90204326923077 13.8671875  Z M 3.74819711538462 9.58147321428571  C 4.01862980769231 9.30245535714286  4.15384615384615 8.96577380952381  4.15384615384615 8.57142857142857  C 4.15384615384615 8.17708333333333  4.01862980769231 7.84040178571429  3.74819711538462 7.56138392857143  C 3.47776442307692 7.28236607142857  3.15144230769231 7.14285714285714  2.76923076923077 7.14285714285714  C 2.38701923076923 7.14285714285714  2.06069711538462 7.28236607142857  1.79026442307692 7.56138392857143  C 1.51983173076923 7.84040178571429  1.38461538461538 8.17708333333333  1.38461538461538 8.57142857142857  C 1.38461538461538 8.96577380952381  1.51983173076923 9.30245535714286  1.79026442307692 9.58147321428571  C 2.06069711538462 9.86049107142857  2.38701923076923 10  2.76923076923077 10  C 3.15144230769231 10  3.47776442307692 9.86049107142857  3.74819711538462 9.58147321428571  Z M 12.0558894230769 13.8671875  C 12.3263221153846 13.5881696428571  12.4615384615385 13.2514880952381  12.4615384615385 12.8571428571429  C 12.4615384615385 12.4627976190476  12.3263221153846 12.1261160714286  12.0558894230769 11.8470982142857  C 11.7854567307692 11.5680803571429  11.4591346153846 11.4285714285714  11.0769230769231 11.4285714285714  C 10.6947115384615 11.4285714285714  10.3683894230769 11.5680803571429  10.0979567307692 11.8470982142857  C 9.82752403846154 12.1261160714286  9.69230769230769 12.4627976190476  9.69230769230769 12.8571428571429  C 9.69230769230769 13.2514880952381  9.82752403846154 13.5881696428571  10.0979567307692 13.8671875  C 10.3683894230769 14.1462053571429  10.6947115384615 14.2857142857143  11.0769230769231 14.2857142857143  C 11.4591346153846 14.2857142857143  11.7854567307692 14.1462053571429  12.0558894230769 13.8671875  Z M 7.90204326923077 9.58147321428571  C 8.17247596153846 9.30245535714286  8.30769230769231 8.96577380952381  8.30769230769231 8.57142857142857  C 8.30769230769231 8.17708333333333  8.17247596153846 7.84040178571429  7.90204326923077 7.56138392857143  C 7.63161057692308 7.28236607142857  7.30528846153846 7.14285714285714  6.92307692307692 7.14285714285714  C 6.54086538461539 7.14285714285714  6.21454326923077 7.28236607142857  5.94411057692308 7.56138392857143  C 5.67367788461539 7.84040178571429  5.53846153846154 8.17708333333333  5.53846153846154 8.57142857142857  C 5.53846153846154 8.96577380952381  5.67367788461539 9.30245535714286  5.94411057692308 9.58147321428571  C 6.21454326923077 9.86049107142857  6.54086538461539 10  6.92307692307692 10  C 7.30528846153846 10  7.63161057692308 9.86049107142857  7.90204326923077 9.58147321428571  Z M 16.2043269230769 18.1473214285714  C 16.4783653846154 17.8645833333333  16.6153846153846 17.5297619047619  16.6153846153846 17.1428571428571  L 16.6153846153846 12.8571428571429  C 16.6153846153846 12.4702380952381  16.4783653846154 12.1354166666667  16.2043269230769 11.8526785714286  C 15.9302884615385 11.5699404761905  15.6057692307692 11.4285714285714  15.2307692307692 11.4285714285714  C 14.8557692307692 11.4285714285714  14.53125 11.5699404761905  14.2572115384615 11.8526785714286  C 13.9831730769231 12.1354166666667  13.8461538461538 12.4702380952381  13.8461538461538 12.8571428571429  L 13.8461538461538 17.1428571428571  C 13.8461538461538 17.5297619047619  13.9831730769231 17.8645833333333  14.2572115384615 18.1473214285714  C 14.53125 18.4300595238095  14.8557692307692 18.5714285714286  15.2307692307692 18.5714285714286  C 15.6057692307692 18.5714285714286  15.9302884615385 18.4300595238095  16.2043269230769 18.1473214285714  Z M 12.0558894230769 9.58147321428571  C 12.3263221153846 9.30245535714286  12.4615384615385 8.96577380952381  12.4615384615385 8.57142857142857  C 12.4615384615385 8.17708333333333  12.3263221153846 7.84040178571429  12.0558894230769 7.56138392857143  C 11.7854567307692 7.28236607142857  11.4591346153846 7.14285714285714  11.0769230769231 7.14285714285714  C 10.6947115384615 7.14285714285714  10.3683894230769 7.28236607142857  10.0979567307692 7.56138392857143  C 9.82752403846154 7.84040178571429  9.69230769230769 8.17708333333333  9.69230769230769 8.57142857142857  C 9.69230769230769 8.96577380952381  9.82752403846154 9.30245535714286  10.0979567307692 9.58147321428571  C 10.3683894230769 9.86049107142857  10.6947115384615 10  11.0769230769231 10  C 11.4591346153846 10  11.7854567307692 9.86049107142857  12.0558894230769 9.58147321428571  Z M 16.4098557692308 5.50223214285714  C 16.546875 5.36086309523809  16.6153846153846 5.19345238095238  16.6153846153846 5  L 16.6153846153846 2.14285714285714  C 16.6153846153846 1.94940476190476  16.546875 1.78199404761905  16.4098557692308 1.640625  C 16.2728365384615 1.49925595238095  16.1105769230769 1.42857142857143  15.9230769230769 1.42857142857143  L 2.07692307692308 1.42857142857143  C 1.88942307692308 1.42857142857143  1.72716346153846 1.49925595238095  1.59014423076923 1.640625  C 1.453125 1.78199404761905  1.38461538461538 1.94940476190476  1.38461538461538 2.14285714285714  L 1.38461538461538 5  C 1.38461538461538 5.19345238095238  1.453125 5.36086309523809  1.59014423076923 5.50223214285714  C 1.72716346153846 5.64360119047619  1.88942307692308 5.71428571428571  2.07692307692308 6  L 15.9230769230769 6  C 16.1105769230769 5.71428571428571  16.2728365384615 5.64360119047619  16.4098557692308 5.50223214285714  Z M 16.2097355769231 9.58147321428571  C 16.4801682692308 9.30245535714286  16.6153846153846 8.96577380952381  16.6153846153846 8.57142857142857  C 16.6153846153846 8.17708333333333  16.4801682692308 7.84040178571429  16.2097355769231 7.56138392857143  C 15.9393028846154 7.28236607142857  15.6129807692308 7.14285714285714  15.2307692307692 7.14285714285714  C 14.8485576923077 7.14285714285714  14.5222355769231 7.28236607142857  14.2518028846154 7.56138392857143  C 13.9813701923077 7.84040178571429  13.8461538461538 8.17708333333333  13.8461538461538 8.57142857142857  C 13.8461538461538 8.96577380952381  13.9813701923077 9.30245535714286  14.2518028846154 9.58147321428571  C 14.5222355769231 9.86049107142857  14.8485576923077 10  15.2307692307692 10  C 15.6129807692308 10  15.9393028846154 9.86049107142857  16.2097355769231 9.58147321428571  Z M 17.5889423076923 0.424107142857142  C 17.8629807692308 0.706845238095237  18 1.04166666666667  18 1.42857142857143  L 18 18.5714285714286  C 18 18.9583333333333  17.8629807692308 19.2931547619048  17.5889423076923 19.5758928571429  C 17.3149038461538 19.858630952381  16.9903846153846 20  16.6153846153846 20  L 1.38461538461538 20  C 1.00961538461538 20  0.685096153846154 19.858630952381  0.411057692307692 19.5758928571429  C 0.137019230769231 19.2931547619048  0 18.9583333333333  0 18.5714285714286  L 0 1.42857142857143  C 0 1.04166666666667  0.137019230769231 0.706845238095237  0.411057692307692 0.424107142857142  C 0.685096153846154 0.141369047619049  1.00961538461538 0  1.38461538461538 0  L 16.6153846153846 0  C 16.9903846153846 0  17.3149038461538 0.141369047619049  17.5889423076923 0.424107142857142  Z " fill-rule="nonzero" fill="#052535" stroke="none" transform="matrix(1 0 0 1 185 204 )" />
  </g>
</svg>