<?xml version="1.0" encoding="utf-8"?>
<svg version="1.1" xmlns:xlink="http://www.w3.org/1999/xlink" width="15px" height="15px" xmlns="http://www.w3.org/2000/svg">
  <g transform="matrix(1 0 0 1 -175 -91 )">
    <path d="M 10.361328125 6.9921875  C 10.537109375 7.11588541666667  10.625 7.28515625  10.625 7.5  C 10.625 7.71484375  10.537109375 7.88411458333333  10.361328125 8.0078125  L 5.986328125 11.1328125  C 5.78450520833333 11.2825520833333  5.56966145833333 11.298828125  5.341796875 11.181640625  C 5.11393229166667 11.0709635416667  5 10.8854166666667  5 10.625  L 5 4.375  C 5 4.11458333333333  5.11393229166667 3.92903645833333  5.341796875 3.818359375  C 5.56966145833333 3.701171875  5.78450520833333 3.71744791666667  5.986328125 3.8671875  L 10.361328125 6.9921875  Z M 12.412109375 12.412109375  C 12.470703125 12.353515625  12.5 12.2786458333333  12.5 12.1875  L 12.5 2.8125  C 12.5 2.72135416666667  12.470703125 2.646484375  12.412109375 2.587890625  C 12.353515625 2.529296875  12.2786458333333 2.5  12.1875 2.5  L 2.8125 2.5  C 2.72135416666667 2.5  2.646484375 2.529296875  2.587890625 2.587890625  C 2.529296875 2.646484375  2.5 2.72135416666667  2.5 2.8125  L 2.5 12.1875  C 2.5 12.2786458333333  2.529296875 12.353515625  2.587890625 12.412109375  C 2.646484375 12.470703125  2.72135416666667 12.5  2.8125 12.5  L 12.1875 12.5  C 12.2786458333333 12.5  12.353515625 12.470703125  12.412109375 12.412109375  Z M 14.1748046875 0.825195312500001  C 14.7249348958333 1.37532552083333  15 2.03776041666666  15 2.8125  L 15 12.1875  C 15 12.9622395833333  14.7249348958333 13.6246744791667  14.1748046875 14.1748046875  C 13.6246744791667 14.7249348958333  12.9622395833333 15  12.1875 15  L 2.8125 15  C 2.03776041666667 15  1.37532552083333 14.7249348958333  0.8251953125 14.1748046875  C 0.275065104166667 13.6246744791667  0 12.9622395833333  0 12.1875  L 0 2.8125  C 0 2.03776041666666  0.275065104166667 1.37532552083333  0.8251953125 0.825195312500001  C 1.37532552083333 0.275065104166666  2.03776041666667 0  2.8125 0  L 12.1875 0  C 12.9622395833333 0  13.6246744791667 0.275065104166666  14.1748046875 0.825195312500001  Z " fill-rule="nonzero" fill="#3885b1" stroke="none" transform="matrix(1 0 0 1 175 91 )" />
  </g>
</svg>