<?xml version="1.0" encoding="utf-8"?>
<svg version="1.1" xmlns:xlink="http://www.w3.org/1999/xlink" width="4px" height="8px" xmlns="http://www.w3.org/2000/svg">
  <g transform="matrix(1 0 0 1 -1039 -312 )">
    <path d="M 3.92578125 4.83522727272727  C 3.97526041666667 4.90719696969697  4 4.99242424242424  4 5.09090909090909  C 4 5.18939393939394  3.97526041666667 5.27462121212121  3.92578125 5.34659090909091  L 2.17578125 7.89204545454545  C 2.12630208333333 7.96401515151515  2.06770833333333 8  2 8  C 1.93229166666667 8  1.87369791666667 7.96401515151515  1.82421875 7.89204545454545  L 0.07421875 5.34659090909091  C 0.0247395833333333 5.27462121212121  0 5.18939393939394  0 5.09090909090909  C 0 4.99242424242424  0.0247395833333333 4.90719696969697  0.07421875 4.83522727272727  C 0.123697916666667 4.76325757575758  0.182291666666667 4.72727272727273  0.25 4.72727272727273  L 3.75 4.72727272727273  C 3.81770833333333 4.72727272727273  3.87630208333333 4.76325757575758  3.92578125 4.83522727272727  Z M 3.92578125 2.65340909090909  C 3.97526041666667 2.72537878787879  4 2.81060606060606  4 2.90909090909091  C 4 3.00757575757576  3.97526041666667 3.09280303030303  3.92578125 3.16477272727273  C 3.87630208333333 3.23674242424242  3.81770833333333 3.27272727272727  3.75 3.27272727272727  L 0.25 3.27272727272727  C 0.182291666666667 3.27272727272727  0.123697916666667 3.23674242424242  0.07421875 3.16477272727273  C 0.0247395833333333 3.09280303030303  0 3.00757575757576  0 2.90909090909091  C 0 2.81060606060606  0.0247395833333333 2.72537878787879  0.07421875 2.65340909090909  L 1.82421875 0.107954545454546  C 1.87369791666667 0.0359848484848477  1.93229166666667 0  2 0  C 2.06770833333333 0  2.12630208333333 0.0359848484848477  2.17578125 0.107954545454546  L 3.92578125 2.65340909090909  Z " fill-rule="nonzero" fill="#ffffff" stroke="none" transform="matrix(1 0 0 1 1039 312 )" />
  </g>
</svg>