<?xml version="1.0" encoding="utf-8"?>
<svg version="1.1" xmlns:xlink="http://www.w3.org/1999/xlink" width="5px" height="8px" xmlns="http://www.w3.org/2000/svg">
  <g transform="matrix(1 0 0 1 -986 -292 )">
    <path d="M 4.9072265625 4.83522727272727  C 4.96907552083333 4.90719696969697  5 4.99242424242424  5 5.09090909090909  C 5 5.18939393939394  4.96907552083333 5.27462121212121  4.9072265625 5.34659090909091  L 2.7197265625 7.89204545454545  C 2.65787760416667 7.96401515151515  2.58463541666667 8  2.5 8  C 2.41536458333333 8  2.34212239583333 7.96401515151515  2.2802734375 7.89204545454545  L 0.0927734375 5.34659090909091  C 0.0309244791666667 5.27462121212121  0 5.18939393939394  0 5.09090909090909  C 0 4.99242424242424  0.0309244791666667 4.90719696969697  0.0927734375 4.83522727272727  C 0.154622395833333 4.76325757575758  0.227864583333333 4.72727272727273  0.3125 4.72727272727273  L 4.6875 4.72727272727273  C 4.77213541666667 4.72727272727273  4.84537760416667 4.76325757575758  4.9072265625 4.83522727272727  Z M 4.9072265625 2.65340909090909  C 4.96907552083333 2.72537878787879  5 2.81060606060606  5 2.90909090909091  C 5 3.00757575757576  4.96907552083333 3.09280303030303  4.9072265625 3.16477272727273  C 4.84537760416667 3.23674242424242  4.77213541666667 3.27272727272727  4.6875 3.27272727272727  L 0.3125 3.27272727272727  C 0.227864583333333 3.27272727272727  0.154622395833333 3.23674242424242  0.0927734375 3.16477272727273  C 0.0309244791666667 3.09280303030303  0 3.00757575757576  0 2.90909090909091  C 0 2.81060606060606  0.0309244791666667 2.72537878787879  0.0927734375 2.65340909090909  L 2.2802734375 0.107954545454546  C 2.34212239583333 0.0359848484848477  2.41536458333333 0  2.5 0  C 2.58463541666667 0  2.65787760416667 0.0359848484848477  2.7197265625 0.107954545454546  L 4.9072265625 2.65340909090909  Z " fill-rule="nonzero" fill="#ffffff" stroke="none" transform="matrix(1 0 0 1 986 292 )" />
  </g>
</svg>