<?xml version="1.0" encoding="utf-8"?>
<svg version="1.1" xmlns:xlink="http://www.w3.org/1999/xlink" width="50px" height="47px" xmlns="http://www.w3.org/2000/svg">
  <g transform="matrix(1 0 0 1 -615 -150 )">
    <path d="M 28.2989977728285 39.5009014423077  C 28.4753155159614 39.322015224359  28.5634743875278 39.1007612179487  28.5634743875278 38.8371394230769  L 28.5634743875278 33.4705528846154  C 28.5634743875278 33.2069310897436  28.4753155159614 32.9856770833333  28.2989977728285 32.8067908653846  C 28.1226800296956 32.6279046474359  27.9138827023014 32.5384615384615  27.6726057906459 32.5384615384615  L 22.3273942093541 32.5384615384615  C 22.0861172976986 32.5384615384615  21.8773199703044 32.6279046474359  21.7010022271715 32.8067908653846  C 21.5246844840386 32.9856770833333  21.4365256124722 33.2069310897436  21.4365256124722 33.4705528846154  L 21.4365256124722 38.8371394230769  C 21.4365256124722 39.1007612179487  21.5246844840386 39.322015224359  21.7010022271715 39.5009014423077  C 21.8773199703044 39.6797876602564  22.0861172976986 39.7692307692308  22.3273942093541 39.7692307692308  L 27.6726057906459 39.7692307692308  C 27.9138827023014 39.7692307692308  28.1226800296956 39.6797876602564  28.2989977728285 39.5009014423077  Z M 28.2154788418708 28.7394831730769  C 28.3917965850037 28.6170873397436  28.4892353377877 28.4617387820513  28.5077951002227 28.2734375  L 29.0089086859688 15.3088942307692  C 29.0089086859688 15.0829326923077  28.9161098737936 14.904046474359  28.7305122494432 14.7722355769231  C 28.4892353377877 14.5651041666667  28.2665181885672 14.4615384615385  28.0623608017817 14.4615384615385  L 21.9376391982183 14.4615384615385  C 21.7334818114328 14.4615384615385  21.5107646622123 14.5651041666667  21.2694877505568 14.7722355769231  C 21.0838901262064 14.904046474359  20.9910913140312 15.1017628205128  20.9910913140312 15.3653846153846  L 21.4643652561247 28.2734375  C 21.4643652561247 28.4617387820513  21.5571640682999 28.6170873397436  21.7427616926503 28.7394831730769  C 21.9283593170007 28.8618790064103  22.1510764662212 28.9230769230769  22.4109131403118 28.9230769230769  L 27.5612472160356 28.9230769230769  C 27.8210838901262 28.9230769230769  28.0391610987379 28.8618790064103  28.2154788418708 28.7394831730769  Z M 26.8095768374165 0.508413461538462  C 27.3663697104677 0.847355769230769  27.8025241276912 1.30869391025641  28.1180400890869 1.89242788461539  L 49.4988864142539 41.6616586538462  C 50.1484780994803 42.8479567307692  50.1299183370453 44.0342548076923  49.4432071269488 45.2205528846154  C 49.1276911655531 45.7666266025641  48.6961766889384 46.1997195512821  48.1486636971047 46.5198317307692  C 47.601150705271 46.8399439102564  47.0118782479584 47  46.380846325167 47  L 3.61915367483296 47  C 2.98812175204157 47  2.39884929472903 46.8399439102564  1.85133630289532 46.5198317307692  C 1.30382331106162 46.1997195512821  0.872308834446919 45.7666266025641  0.556792873051225 45.2205528846154  C -0.129918337045286 44.0342548076923  -0.148478099480327 42.8479567307692  0.501113585746102 41.6616586538462  L 21.8819599109131 1.89242788461539  C 22.1974758723088 1.30869391025641  22.6336302895323 0.847355769230769  23.1904231625835 0.508413461538462  C 23.7472160356347 0.169471153846156  24.3504083147736 0  25 0  C 25.6495916852264 0  26.2527839643653 0.169471153846156  26.8095768374165 0.508413461538462  Z " fill-rule="nonzero" fill="#cf0037" stroke="none" transform="matrix(1 0 0 1 615 150 )" />
  </g>
</svg>