<?xml version="1.0" encoding="utf-8"?>
<svg version="1.1" xmlns:xlink="http://www.w3.org/1999/xlink" width="10px" height="12px" xmlns="http://www.w3.org/2000/svg">
  <g transform="matrix(1 0 0 1 -32 -164 )">
    <path d="M 7.52604166666667 0.455357142857143  L 9.55729166666667 2.54464285714286  C 9.67881944444444 2.66964285714286  9.78298611111111 2.83928571428571  9.86979166666667 3.05357142857143  C 9.95659722222222 3.26785714285714  10 3.46428571428571  10 3.64285714285714  L 10 11.3571428571429  C 10 11.5357142857143  9.93923611111111 11.6875  9.81770833333333 11.8125  C 9.69618055555556 11.9375  9.54861111111111 12  9.375 12  L 0.625 12  C 0.451388888888889 12  0.303819444444444 11.9375  0.182291666666667 11.8125  C 0.0607638888888889 11.6875  0 11.5357142857143  0 11.3571428571429  L 0 0.642857142857143  C 0 0.464285714285714  0.0607638888888889 0.3125  0.182291666666667 0.1875  C 0.303819444444444 0.0625000000000004  0.451388888888889 0  0.625 0  L 6.45833333333333 0  C 6.63194444444445 0  6.82291666666667 0.0446428571428577  7.03125 0.133928571428572  C 7.23958333333333 0.223214285714286  7.40451388888889 0.330357142857142  7.52604166666667 0.455357142857143  Z M 6.93359375 1.05803571428571  C 6.88151041666667 1.00446428571429  6.79253472222222 0.955357142857141  6.66666666666667 0.910714285714285  L 6.66666666666667 3.42857142857143  L 9.11458333333333 3.42857142857143  C 9.07118055555556 3.29910714285714  9.0234375 3.20758928571429  8.97135416666667 3.15401785714286  L 6.93359375 1.05803571428571  Z M 1 11.1428571428571  L 9.16666666666667 11.1428571428571  L 9.16666666666667 4.28571428571428  L 6.45833333333333 4.28571428571428  C 6.28472222222222 4.28571428571428  6.13715277777778 4.22321428571428  6.015625 4.09821428571428  C 5.89409722222222 3.97321428571429  5.83333333333333 3.82142857142857  5.83333333333333 3.64285714285714  L 5.83333333333333 0.857142857142857  L 1 0.857142857142857  L 1 11.1428571428571  Z M 2.5 5.78571428571428  L 2.5 5.35714285714286  C 2.5 5.29464285714286  2.51953125 5.24330357142857  2.55859375 5.203125  C 2.59765625 5.16294642857143  2.64756944444444 5.14285714285714  2.70833333333333 5.14285714285714  L 7.29166666666667 5.14285714285714  C 7.35243055555556 5.14285714285714  7.40234375 5.16294642857143  7.44140625 5.203125  C 7.48046875 5.24330357142857  7.5 5.29464285714286  7.5 5.35714285714286  L 7.5 5.78571428571428  C 7.5 5.84821428571429  7.48046875 5.89955357142857  7.44140625 5.93973214285714  C 7.40234375 5.97991071428572  7.35243055555556 6  7.29166666666667 6  L 2.70833333333333 6  C 2.64756944444444 6  2.59765625 5.97991071428572  2.55859375 5.93973214285714  C 2.51953125 5.89955357142857  2.5 5.84821428571429  2.5 5.78571428571428  Z M 2.70833333333333 6.85714285714286  L 7.29166666666667 6.85714285714286  C 7.35243055555556 6.85714285714286  7.40234375 6.87723214285714  7.44140625 6.91741071428571  C 7.48046875 6.95758928571429  7.5 7.00892857142857  7.5 7.07142857142857  L 7.5 7.5  C 7.5 7.5625  7.48046875 7.61383928571429  7.44140625 7.65401785714286  C 7.40234375 7.69419642857143  7.35243055555556 7.71428571428571  7.29166666666667 7.71428571428571  L 2.70833333333333 7.71428571428571  C 2.64756944444444 7.71428571428571  2.59765625 7.69419642857143  2.55859375 7.65401785714286  C 2.51953125 7.61383928571429  2.5 7.5625  2.5 7.5  L 2.5 7.07142857142857  C 2.5 7.00892857142857  2.51953125 6.95758928571429  2.55859375 6.91741071428571  C 2.59765625 6.87723214285714  2.64756944444444 6.85714285714286  2.70833333333333 6.85714285714286  Z M 2.70833333333333 8.57142857142857  L 7.29166666666667 8.57142857142857  C 7.35243055555556 8.57142857142857  7.40234375 8.59151785714286  7.44140625 8.63169642857143  C 7.48046875 8.671875  7.5 8.72321428571429  7.5 8.78571428571429  L 7.5 9.21428571428571  C 7.5 9.27678571428571  7.48046875 9.328125  7.44140625 9.36830357142857  C 7.40234375 9.40848214285714  7.35243055555556 9.42857142857143  7.29166666666667 9.42857142857143  L 2.70833333333333 9.42857142857143  C 2.64756944444444 9.42857142857143  2.59765625 9.40848214285714  2.55859375 9.36830357142857  C 2.51953125 9.328125  2.5 9.27678571428571  2.5 9.21428571428571  L 2.5 8.78571428571429  C 2.5 8.72321428571429  2.51953125 8.671875  2.55859375 8.63169642857143  C 2.59765625 8.59151785714286  2.64756944444444 8.57142857142857  2.70833333333333 8.57142857142857  Z " fill-rule="nonzero" fill="#f59a23" stroke="none" transform="matrix(1 0 0 1 32 164 )" />
  </g>
</svg>