<?xml version="1.0" encoding="utf-8"?>
<svg version="1.1" xmlns:xlink="http://www.w3.org/1999/xlink" width="12px" height="12px" xmlns="http://www.w3.org/2000/svg">
  <g transform="matrix(1 0 0 1 -3 -159 )">
    <path d="M 2.51553930530165 10.1448569689592  C 2.60816575258988 10.0523432744979  2.654478976234 9.94278758368838  2.654478976234 9.81618989653074  C 2.654478976234 9.6895922093731  2.60816575258988 9.5800365185636  2.51553930530165 9.48752282410225  C 2.42291285801341 9.3950091296409  2.31322364411944 9.34875228241022  2.18647166361974 9.34875228241022  C 2.05971968312005 9.34875228241022  1.95003046922608 9.3950091296409  1.85740402193784 9.48752282410225  C 1.7647775746496 9.5800365185636  1.71846435100548 9.6895922093731  1.71846435100548 9.81618989653074  C 1.71846435100548 9.94278758368838  1.7647775746496 10.0523432744979  1.85740402193784 10.1448569689592  C 1.95003046922608 10.2373706634206  2.05971968312005 10.2836275106512  2.18647166361974 10.2836275106512  C 2.31322364411944 10.2836275106512  2.42291285801341 10.2373706634206  2.51553930530165 10.1448569689592  Z M 6.09506398537477 5.9123554473524  C 6.4631322364412 6.27997565429093  6.8860450944546 6.55873402312842  7.36380255941499 6.74863055386488  L 2.37659963436929 11.7297626293366  C 2.19622181596587 11.9099208764455  1.97684338817794 12  1.71846435100548 12  C 1.46496039000609 12  1.24314442413163 11.9099208764455  1.05301645338208 11.7297626293366  L 0.277879341864717 10.9409616555082  C 0.0926264472882389 10.765672550213  0 10.546561168594  0 10.2836275106512  C 0 10.0255629945222  0.0926264472882389 9.80401704199635  0.277879341864717 9.61898965307365  L 5.25776965265082 4.64516129032258  C 5.44789762340037 5.1223371880706  5.72699573430835 5.54473524041388  6.09506398537477 5.9123554473524  Z M 11.9378427787934 3.38892270237371  C 11.9792809262645 3.43761412051126  12 3.4984783931832  12 3.57151552038953  C 12 3.76141205112599  11.9439366240098 4.01947656725502  11.8318098720293 4.34570906877663  C 11.6026812918952 4.99817407181984  11.2017062766606 5.52769324406573  10.6288848263254 5.9342665855143  C 10.0560633759903 6.34083992696287  9.42595978062157 6.54412659768716  8.73857404021938 6.54412659768716  C 7.83668494820232 6.54412659768716  7.06520414381475 6.22398052343274  6.42413162705667 5.58368837492392  C 5.7830591102986 4.94339622641509  5.46252285191956 4.17285453438831  5.46252285191956 3.27206329884358  C 5.46252285191956 2.37127206329884  5.7830591102986 1.60073037127206  6.42413162705667 0.960438222763238  C 7.06520414381475 0.320146074254412  7.83668494820232 0  8.73857404021938 0  C 9.02132845825716 0  9.31748933577087 0.040170419963482  9.62705667276051 0.120511259890445  C 9.93662400975015 0.200852099817407  10.1986593540524 0.314059646987219  10.4131627056673 0.460133901399879  C 10.4911639244363 0.513694461351186  10.5301645338208 0.58186244674376  10.5301645338208 0.664637857577602  C 10.5301645338208 0.747413268411442  10.4911639244363 0.815581253804016  10.4131627056673 0.869141813755326  L 8.27056672760512 2.1034692635423  L 8.27056672760512 3.73950091296409  L 9.68190127970749 4.52099817407182  C 9.70627666057282 4.50639074863055  9.8988421694089 4.38831405964699  10.2595978062157 4.16676810712112  C 10.6203534430225 3.94522215459525  10.9506398537477 3.74802191113816  11.2504570383912 3.57516737674985  C 11.5502742230347 3.40231284236153  11.7221206581353 3.31588557516738  11.7659963436929 3.31588557516738  C 11.8391224862888 3.31588557516738  11.8964046313224 3.34023128423615  11.9378427787934 3.38892270237371  Z " fill-rule="nonzero" fill="#f59a23" stroke="none" transform="matrix(1 0 0 1 3 159 )" />
  </g>
</svg>