<?xml version="1.0" encoding="utf-8"?>
<svg version="1.1" xmlns:xlink="http://www.w3.org/1999/xlink" width="15px" height="12px" xmlns="http://www.w3.org/2000/svg">
  <g transform="matrix(1 0 0 1 0 -1 )">
    <path d="M 4.41176470588235 8.63839285714286  L 4.41176470588235 10.9285714285714  L 7.05882352941176 9.64285714285714  L 7.05882352941176 7.54017857142857  L 4.41176470588235 8.63839285714286  Z M 1.18566176470588 6.72991071428571  L 3.97058823529412 7.88839285714286  L 6.75551470588235 6.72991071428571  L 3.97058823529412 5.57142857142857  L 1.18566176470588 6.72991071428571  Z M 11.4705882352941 8.63839285714286  L 11.4705882352941 10.9285714285714  L 14.1176470588235 9.64285714285714  L 14.1176470588235 7.54017857142857  L 11.4705882352941 8.63839285714286  Z M 8.24448529411765 6.72991071428571  L 11.0294117647059 7.88839285714286  L 13.8143382352941 6.72991071428571  L 11.0294117647059 5.57142857142857  L 8.24448529411765 6.72991071428571  Z M 7.94117647058824 4.13839285714286  L 7.94117647058824 5.92633928571428  L 10.5882352941176 4.82142857142857  L 10.5882352941176 3.04017857142857  L 7.94117647058824 4.13839285714286  Z M 4.46001838235294 2.12276785714286  L 7.5 3.38839285714286  L 10.5399816176471 2.12276785714286  L 7.5 0.857142857142857  L 4.46001838235294 2.12276785714286  Z M 14.8552389705882 6.38839285714286  C 14.9517463235294 6.53125  15 6.6875  15 6.85714285714286  L 15 9.64285714285714  C 15 9.80357142857143  14.9563419117647 9.953125  14.8690257352941 10.0915178571429  C 14.7817095588235 10.2299107142857  14.6622242647059 10.3348214285714  14.5105698529412 10.40625  L 11.4223345588235 11.90625  C 11.3074448529412 11.96875  11.1764705882353 12  11.0294117647059 12  C 10.8823529411765 12  10.7513786764706 11.96875  10.6364889705882 11.90625  L 7.54825367647059 10.40625  C 7.52987132352941 10.3973214285714  7.51378676470588 10.3883928571429  7.5 10.3794642857143  C 7.49080882352941 10.3883928571429  7.47472426470588 10.3973214285714  7.45174632352941 10.40625  L 4.36351102941176 11.90625  C 4.24862132352941 11.96875  4.11764705882353 12  3.97058823529412 12  C 3.82352941176471 12  3.69255514705882 11.96875  3.57766544117647 11.90625  L 0.489430147058824 10.40625  C 0.337775735294118 10.3348214285714  0.218290441176471 10.2299107142857  0.130974264705882 10.0915178571429  C 0.0436580882352941 9.953125  0 9.80357142857143  0 9.64285714285714  L 0 6.85714285714286  C 0 6.6875  0.0494025735294118 6.53125  0.148207720588235 6.38839285714286  C 0.247012867647059 6.24553571428571  0.376838235294118 6.13839285714286  0.537683823529412 6.06696428571429  L 3.52941176470588 4.82142857142857  L 3.52941176470588 2.14285714285714  C 3.52941176470588 1.97321428571428  3.57881433823529 1.81696428571429  3.67761948529412 1.67410714285714  C 3.77642463235294 1.53125  3.90625 1.42410714285714  4.06709558823529 1.35267857142857  L 7.15533088235294 0.0669642857142851  C 7.26102941176471 0.0223214285714302  7.37591911764706 0  7.5 0  C 7.62408088235294 0  7.7389705882353 0.0223214285714302  7.84466911764706 0.0669642857142851  L 10.9329044117647 1.35267857142857  C 11.09375 1.42410714285714  11.2235753676471 1.53125  11.3223805147059 1.67410714285714  C 11.4211856617647 1.81696428571429  11.4705882352941 1.97321428571428  11.4705882352941 2.14285714285714  L 11.4705882352941 4.82142857142857  L 14.4623161764706 6.06696428571429  C 14.6277573529412 6.13839285714286  14.7587316176471 6.24553571428571  14.8552389705882 6.38839285714286  Z " fill-rule="nonzero" fill="#f59a23" stroke="none" transform="matrix(1 0 0 1 0 1 )" />
  </g>
</svg>